<?xml version="1.0" encoding="UTF-8" standalone="no"?>
<!-- Created with Inkscape (http://www.inkscape.org/) -->

<svg
   version="1.1"
   id="svg2"
   width="800"
   height="800"
   viewBox="0 0 800 800"
   sodipodi:docname="hongik_uni.ai"
   xmlns:inkscape="http://www.inkscape.org/namespaces/inkscape"
   xmlns:sodipodi="http://sodipodi.sourceforge.net/DTD/sodipodi-0.dtd"
   xmlns="http://www.w3.org/2000/svg"
   xmlns:svg="http://www.w3.org/2000/svg">
  <defs
     id="defs6">
    <clipPath
       clipPathUnits="userSpaceOnUse"
       id="clipPath16">
      <path
         d="M 0,600 H 600 V 0 H 0 Z"
         id="path14" />
    </clipPath>
  </defs>
  <sodipodi:namedview
     id="namedview4"
     pagecolor="#ffffff"
     bordercolor="#000000"
     borderopacity="0.25"
     inkscape:showpageshadow="2"
     inkscape:pageopacity="0.0"
     inkscape:pagecheckerboard="0"
     inkscape:deskcolor="#d1d1d1" />
  <g
     id="g8"
     inkscape:groupmode="layer"
     inkscape:label="hongik_uni"
     transform="matrix(1.3333333,0,0,-1.3333333,0,800)">
    <g
       id="g10">
      <g
         id="g12"
         clip-path="url(#clipPath16)">
        <g
           id="g18"
           transform="translate(226.5103,251.8623)">
          <path
             d="m 0,0 c -0.099,-0.02 -0.248,-0.037 -0.452,-0.072 -0.093,-0.012 -0.791,-0.121 -2.08,-0.338 -1.285,-0.212 -2.211,-0.351 -2.765,-0.442 l -2.754,-0.373 c -0.085,-0.017 -0.362,-0.039 -0.842,-0.074 -0.474,-0.037 -0.857,-0.086 -1.148,-0.123 l -0.962,-0.069 c 0.004,-0.074 0.053,-0.277 0.131,-0.613 0.081,-0.36 0.138,-0.646 0.171,-0.856 0.013,-0.096 0.03,-0.323 0.053,-0.693 0.017,-0.366 0.046,-0.637 0.073,-0.823 0.313,0.042 0.78,0.126 1.401,0.26 0.625,0.123 1.102,0.22 1.427,0.262 0.408,0.066 0.821,0.142 1.238,0.217 0.424,0.071 0.849,0.143 1.271,0.202 0.007,-0.089 0.025,-0.197 0.044,-0.328 0.023,-0.133 0.044,-0.283 0.065,-0.467 0.011,-0.031 0.042,-0.217 0.103,-0.527 0.055,-0.331 0.115,-0.588 0.185,-0.781 0.199,-0.609 0.38,-1.058 0.541,-1.333 0.228,-0.38 0.554,-0.732 0.977,-1.041 0.418,-0.321 0.853,-0.504 1.297,-0.583 0.451,-0.071 0.955,-0.071 1.509,0.005 0.76,0.109 1.38,0.432 1.853,0.958 0.472,0.528 0.736,1.175 0.793,1.94 0.026,0.338 0.026,0.671 -0.021,1.002 -0.042,0.329 -0.084,0.657 -0.131,0.978 -0.007,0.046 -0.063,0.358 -0.174,0.962 -0.111,0.598 -0.19,1.037 -0.226,1.306 L 1.39,0.251 C 0.919,0.147 0.456,0.059 0,0 M 0.821,-3.051 C 0.84,-3.157 0.856,-3.271 0.874,-3.392 0.916,-3.666 0.932,-3.905 0.913,-4.093 0.898,-4.277 0.84,-4.458 0.742,-4.631 c -0.2,-0.341 -0.469,-0.588 -0.813,-0.765 -0.343,-0.167 -0.742,-0.296 -1.193,-0.348 -0.613,-0.101 -1.134,-0.062 -1.562,0.101 -0.506,0.173 -0.881,0.539 -1.117,1.083 -0.094,0.23 -0.159,0.414 -0.19,0.559 -0.036,0.138 -0.071,0.343 -0.11,0.609 l 1.306,0.163 1.524,0.222 2.18,0.257 c 0.012,-0.084 0.03,-0.192 0.054,-0.301"
             style="fill:#5589CD;fill-opacity:1;fill-rule:nonzero;stroke:none"
             id="path20" />
        </g>
        <g
           id="g22"
           transform="translate(219.1475,231.9678)">
          <path
             d="m 0,0 c 0.019,-0.079 0.054,-0.325 0.105,-0.721 0.048,-0.387 0.099,-0.706 0.147,-0.921 l 0.883,0.845 C 1.48,-0.469 2.021,0.071 2.763,0.803 3.88,1.915 4.799,2.789 5.515,3.424 5.871,2.604 6.38,1.994 7.048,1.609 7.717,1.215 8.467,1.121 9.32,1.286 c 0.618,0.131 1.112,0.373 1.461,0.708 0.349,0.346 0.627,0.82 0.828,1.42 0.125,0.362 0.162,0.76 0.112,1.143 -0.056,0.389 -0.163,1 -0.33,1.814 -0.106,0.441 -0.207,0.863 -0.308,1.296 -0.097,0.417 -0.198,0.841 -0.282,1.278 l -0.219,1.24 C 10.247,10.12 9.417,9.91 8.104,9.582 7.59,9.456 7.103,9.34 6.643,9.241 L 3.405,8.55 C 3.267,8.525 2.77,8.437 1.928,8.301 1.087,8.155 0.398,8.018 -0.141,7.911 L -1.335,7.73 -1.686,7.682 c 0.015,-0.07 0.078,-0.286 0.178,-0.622 0.101,-0.336 0.175,-0.605 0.215,-0.803 0.015,-0.089 0.041,-0.286 0.084,-0.639 0.045,-0.36 0.086,-0.63 0.126,-0.847 0.131,0.042 0.411,0.117 0.849,0.259 0.431,0.126 0.77,0.223 1.006,0.277 L 1.251,5.42 4.434,6.114 C 4.482,6.121 4.527,6.102 4.556,6.042 4.554,6.008 4.527,5.964 4.476,5.899 L 3.674,5.19 2.818,4.431 -0.419,1.587 C -0.237,1.012 -0.095,0.479 0,0 M 10.252,6.743 C 10.375,6.114 10.399,5.641 10.317,5.316 10.211,4.862 9.882,4.515 9.333,4.287 9.036,4.166 8.743,4.065 8.459,4.019 6.737,3.658 5.719,4.256 5.389,5.825 5.354,6.013 5.329,6.168 5.314,6.27 l 1.293,0.256 1.409,0.272 2.129,0.436 c 0.023,-0.108 0.059,-0.263 0.107,-0.491"
             style="fill:#5589CD;fill-opacity:1;fill-rule:nonzero;stroke:none"
             id="path24" />
        </g>
        <g
           id="g26"
           transform="translate(232.0044,217.6123)">
          <path
             d="M 0,0 C 0.411,0.247 0.811,0.554 1.195,0.919 1.581,1.27 1.902,1.672 2.152,2.113 2.369,2.503 2.554,2.982 2.698,3.574 2.889,4.283 2.956,4.996 2.884,5.736 2.812,6.479 2.642,7.223 2.36,7.978 2.021,8.886 1.573,9.695 1.019,10.392 c -0.54,0.701 -1.226,1.263 -2.033,1.717 -0.816,0.445 -1.68,0.697 -2.599,0.756 -0.913,0.042 -1.821,-0.104 -2.71,-0.444 -0.904,-0.341 -1.672,-0.774 -2.301,-1.299 -0.634,-0.54 -1.134,-1.214 -1.494,-2.031 -0.362,-0.797 -0.526,-1.671 -0.494,-2.574 0.031,-0.934 0.217,-1.827 0.547,-2.73 0.352,-0.929 0.794,-1.743 1.337,-2.414 0.547,-0.684 1.225,-1.239 2.043,-1.688 0.816,-0.445 1.694,-0.702 2.621,-0.739 0.93,-0.061 1.831,0.097 2.714,0.412 C -0.856,-0.454 -0.41,-0.236 0,0 m -8.584,7.396 c 0.628,0.863 1.568,1.53 2.83,2.005 0.672,0.245 1.346,0.438 2.015,0.583 0.682,0.136 1.323,0.161 1.946,0.107 C -1.167,10.031 -0.571,9.81 0.019,9.438 0.375,9.204 0.645,8.96 0.821,8.721 0.991,8.481 1.166,8.141 1.327,7.706 1.778,6.517 1.602,5.391 0.806,4.354 0.147,3.48 -0.82,2.809 -2.089,2.33 -2.754,2.083 -3.405,1.901 -4.047,1.785 -4.692,1.679 -5.303,1.659 -5.899,1.743 -6.654,1.856 -7.3,2.104 -7.836,2.485 -8.366,2.873 -8.763,3.396 -9.019,4.09 -9.47,5.282 -9.323,6.391 -8.584,7.396"
             style="fill:#5589CD;fill-opacity:1;fill-rule:nonzero;stroke:none"
             id="path28" />
        </g>
        <g
           id="g30"
           transform="translate(239.5107,214.0439)">
          <path
             d="M 0,0 C 0.129,-0.156 0.296,-0.386 0.491,-0.688 0.686,-0.978 0.808,-1.168 0.854,-1.215 0.995,-1.383 1.183,-1.6 1.425,-1.861 1.668,-2.108 1.815,-2.276 1.866,-2.341 1.601,-2.538 1.225,-2.81 0.731,-3.15 0.241,-3.48 -0.078,-3.708 -0.212,-3.816 L -0.826,-4.305 -2.14,-5.366 c 0.195,-0.239 0.517,-0.672 0.968,-1.264 0.445,-0.602 0.693,-0.933 0.729,-0.968 0.207,-0.266 0.542,-0.678 1.026,-1.241 C 1.058,-9.395 1.314,-9.7 1.339,-9.73 l 2.019,1.609 c 0.281,0.227 0.515,0.415 0.681,0.58 0.701,0.612 1.089,0.948 1.163,1.007 C 5.33,-6.689 5.496,-6.929 5.693,-7.223 5.89,-7.521 6.016,-7.706 6.061,-7.761 6.174,-7.903 6.358,-8.102 6.615,-8.378 6.86,-8.649 7.022,-8.81 7.079,-8.894 6.81,-9.104 6.561,-9.288 6.327,-9.444 5.515,-9.978 5.09,-10.259 5.024,-10.317 l -3.368,-2.607 c -0.616,-0.496 -1.172,-0.945 -1.661,-1.383 -1.707,-1.461 -2.62,-2.241 -2.743,-2.335 -0.129,0.168 -0.288,0.391 -0.483,0.672 -0.195,0.291 -0.311,0.472 -0.355,0.526 -0.143,0.173 -0.351,0.417 -0.62,0.706 -0.273,0.289 -0.428,0.473 -0.47,0.51 l 2.078,1.442 2.102,1.599 0.693,0.539 -1.697,2.216 -1.784,2.167 -1.737,-1.382 c -0.392,-0.306 -0.923,-0.773 -1.595,-1.36 -0.68,-0.58 -1.114,-0.95 -1.315,-1.118 -0.119,0.147 -0.281,0.37 -0.473,0.661 -0.188,0.291 -0.312,0.457 -0.357,0.519 -0.143,0.189 -0.349,0.417 -0.608,0.706 -0.266,0.273 -0.422,0.449 -0.466,0.496 0.536,0.425 1.206,0.935 2.008,1.508 1.813,1.3 2.947,2.128 3.39,2.498 0.636,0.496 1.195,0.965 1.682,1.377 C -1.031,-0.879 -0.114,-0.089 0,0"
             style="fill:#5589CD;fill-opacity:1;fill-rule:nonzero;stroke:none"
             id="path32" />
        </g>
        <g
           id="g34"
           transform="translate(255.606,192.1309)">
          <path
             d="M 0,0 C 0.215,0.427 0.388,0.905 0.515,1.421 0.646,1.917 0.693,2.434 0.664,2.946 0.638,3.379 0.534,3.89 0.334,4.472 0.111,5.176 -0.228,5.798 -0.686,6.39 -1.139,6.978 -1.696,7.498 -2.34,7.981 -3.117,8.564 -3.926,9.009 -4.761,9.29 -5.599,9.576 -6.48,9.697 -7.412,9.626 -8.336,9.571 -9.197,9.313 -9.995,8.851 -10.795,8.396 -11.471,7.792 -12.044,7.02 -12.619,6.254 -13.026,5.462 -13.262,4.672 -13.507,3.88 -13.565,3.038 -13.43,2.174 c 0.133,-0.878 0.459,-1.7 0.981,-2.453 0.527,-0.755 1.173,-1.414 1.936,-1.982 0.802,-0.593 1.616,-1.032 2.439,-1.313 0.83,-0.277 1.707,-0.391 2.633,-0.317 0.921,0.07 1.791,0.341 2.599,0.79 0.811,0.467 1.494,1.08 2.055,1.831 C -0.471,-0.85 -0.213,-0.425 0,0 m -11.221,1.574 c 0.063,1.057 0.499,2.14 1.297,3.206 0.431,0.58 0.896,1.109 1.382,1.587 0.5,0.472 1.024,0.862 1.573,1.144 0.558,0.288 1.183,0.431 1.882,0.431 0.427,0 0.78,-0.059 1.053,-0.163 0.279,-0.108 0.602,-0.305 0.979,-0.582 1.024,-0.77 1.488,-1.795 1.38,-3.11 C -1.757,3.001 -2.21,1.917 -3.014,0.821 -3.438,0.267 -3.89,-0.25 -4.369,-0.687 c -0.48,-0.449 -0.992,-0.79 -1.527,-1.037 -0.71,-0.31 -1.384,-0.454 -2.039,-0.423 -0.652,0.029 -1.273,0.261 -1.86,0.698 -1.026,0.762 -1.506,1.774 -1.426,3.023"
             style="fill:#5589CD;fill-opacity:1;fill-rule:nonzero;stroke:none"
             id="path36" />
        </g>
        <g
           id="g38"
           transform="translate(257.729,190.2393)">
          <path
             d="M 0,0 2.805,4.767 C 2.894,4.732 3.015,4.665 3.164,4.577 3.317,4.468 3.407,4.414 3.443,4.409 3.602,4.335 3.742,4.295 3.871,4.266 3.997,4.241 4.098,4.216 4.17,4.191 4.218,2.797 4.26,1.719 4.299,0.988 4.317,0.719 4.388,-0.34 4.509,-2.196 4.581,-3.282 4.659,-4.349 4.745,-5.42 l 1.805,1.54 c 1.9,1.593 3.717,3.209 5.457,4.82 l 0.176,-0.113 c 0.083,-0.071 0.174,-0.108 0.26,-0.145 0.084,-0.035 0.177,-0.084 0.282,-0.119 0.27,-0.108 0.508,-0.192 0.718,-0.227 -0.636,-2.132 -1.13,-3.893 -1.509,-5.24 -0.377,-1.348 -0.662,-2.36 -0.859,-3.048 L 10.26,-11.06 c -0.009,-0.061 -0.03,-0.169 -0.065,-0.347 -0.033,-0.188 -0.074,-0.312 -0.11,-0.415 -0.19,0.091 -0.448,0.212 -0.774,0.367 -0.312,0.173 -0.509,0.265 -0.578,0.299 -0.188,0.077 -0.455,0.168 -0.793,0.269 -0.342,0.126 -0.544,0.185 -0.611,0.21 0.454,1.101 0.895,2.377 1.312,3.84 0.421,1.472 0.821,2.884 1.222,4.238 C 9.074,-3.282 8.293,-3.969 7.512,-4.652 6.73,-5.331 5.95,-6.024 5.173,-6.701 4.648,-7.167 3.886,-7.873 2.876,-8.816 c -0.18,0.096 -0.312,0.163 -0.4,0.212 -0.042,0.01 -0.126,0.04 -0.249,0.052 l -0.171,3.258 c -0.059,1.054 -0.11,2.036 -0.164,2.93 -0.069,0.982 -0.139,1.965 -0.198,2.957 l -1.599,-2.844 -0.967,-1.841 -0.805,-1.596 -0.502,-1.03 c -0.229,0.16 -0.397,0.251 -0.502,0.311 -0.107,0.047 -0.189,0.084 -0.257,0.113 -0.234,0.097 -0.507,0.173 -0.812,0.24 0.042,0.096 0.097,0.204 0.168,0.298 0.005,0.03 0.082,0.114 0.207,0.265 0.171,0.268 0.429,0.646 0.766,1.179 0.245,0.403 0.522,0.833 0.82,1.301 0.304,0.474 0.626,1.005 0.973,1.597 C -0.467,-0.813 -0.195,-0.34 0,0"
             style="fill:#5589CD;fill-opacity:1;fill-rule:nonzero;stroke:none"
             id="path40" />
        </g>
        <g
           id="g42"
           transform="translate(277.1377,189.1562)">
          <path
             d="M 0,0 C -0.07,-0.274 -0.154,-0.551 -0.258,-0.876 -0.524,-1.642 -0.688,-2.14 -0.737,-2.338 -0.838,-2.718 -1.007,-3.3 -1.24,-4.056 -1.473,-4.815 -1.639,-5.391 -1.744,-5.769 -1.842,-6.181 -1.986,-6.79 -2.16,-7.625 c -0.18,-0.813 -0.319,-1.436 -0.428,-1.844 -0.053,-0.209 -0.162,-0.767 -0.332,-1.65 -0.07,-0.36 -0.144,-0.696 -0.225,-1.008 -0.185,0.05 -0.446,0.139 -0.772,0.252 -0.33,0.119 -0.529,0.183 -0.602,0.203 -0.469,0.12 -1.001,0.214 -1.579,0.323 0.168,0.659 0.403,1.453 0.699,2.397 0.661,2.137 1.068,3.477 1.215,4.035 l 0.242,0.958 0.564,2.298 c 0.084,0.321 0.158,0.661 0.233,0.977 0.072,0.326 0.155,0.805 0.251,1.427 C -2.689,0.684 -2.42,0.6 -2.082,0.486 -1.75,0.37 -1.549,0.299 -1.481,0.281 -1.264,0.225 -0.982,0.155 -0.633,0.111 -0.279,0.047 -0.073,0 0,0"
             style="fill:#5589CD;fill-opacity:1;fill-rule:nonzero;stroke:none"
             id="path44" />
        </g>
        <g
           id="g46"
           transform="translate(279.5615,175.7705)">
          <path
             d="m 0,0 -0.125,0.045 -0.696,0.178 c -0.253,0.042 -0.534,0.042 -0.843,0.024 0.284,1.173 0.572,2.532 0.859,4.078 0.285,1.55 0.54,3.045 0.754,4.492 l 0.418,2.908 0.092,0.858 C 0.747,12.475 1.018,12.416 1.259,12.386 1.501,12.349 1.773,12.327 2.087,12.349 2.462,11.799 3.195,10.728 4.292,9.138 5.022,8.074 5.756,7 6.49,5.912 7.415,4.542 8.144,3.456 8.668,2.646 L 9.283,6.63 9.555,8.642 c 0.043,0.247 0.072,0.604 0.118,1.095 0.026,0.487 0.068,0.857 0.11,1.104 l 0.03,0.346 c 0.18,-0.047 0.335,-0.089 0.461,-0.131 0.131,-0.037 0.242,-0.067 0.338,-0.072 0.087,-0.02 0.221,-0.024 0.408,-0.024 0.182,0 0.325,-0.011 0.418,-0.03 L 11.236,9.942 C 11.2,9.671 11.146,9.385 11.074,9.104 10.9,8.331 10.795,7.852 10.765,7.662 10.684,7.116 10.577,6.517 10.453,5.865 10.325,5.233 10.224,4.71 10.148,4.271 L 9.867,2.444 9.3,-1.39 9.111,-1.317 C 8.937,-1.264 8.759,-1.209 8.584,-1.185 8.364,-1.149 8.101,-1.135 7.819,-1.16 7.095,0.021 6.564,0.862 6.235,1.36 5.662,2.267 5.118,3.11 4.596,3.893 4.201,4.473 3.636,5.295 2.889,6.361 L 1.228,8.733 0.816,6.3 0.564,4.66 C 0.506,4.271 0.393,3.293 0.226,1.75 0.154,1.126 0.084,0.546 0,0"
             style="fill:#5589CD;fill-opacity:1;fill-rule:nonzero;stroke:none"
             id="path48" />
        </g>
        <g
           id="g50"
           transform="translate(304.6846,186.1846)">
          <path
             d="m 0,0 c -0.066,-0.454 -0.111,-0.886 -0.15,-1.301 -0.042,-0.41 -0.066,-0.859 -0.083,-1.367 l -0.111,-1.787 -0.12,-2.012 c -0.046,-1.36 -0.154,-2.343 -0.333,-2.939 -0.284,-0.973 -0.872,-1.726 -1.755,-2.314 -0.476,-0.31 -1.014,-0.55 -1.614,-0.676 -0.607,-0.135 -1.227,-0.19 -1.876,-0.172 -1.267,0.051 -2.333,0.286 -3.199,0.748 -1.043,0.549 -1.7,1.377 -1.985,2.503 -0.028,0.083 -0.048,0.239 -0.069,0.436 -0.029,0.197 -0.048,0.359 -0.058,0.516 -0.015,0.143 -0.023,0.276 -0.029,0.395 0,0.109 0,0.251 0.012,0.419 0.002,0.208 0.01,0.37 0.01,0.485 l 0.036,2.27 0.063,2.275 0.043,2.114 -0.008,0.76 c 0.177,-0.005 0.456,-0.015 0.82,-0.064 0.365,-0.05 0.598,-0.072 0.69,-0.072 0.49,-0.02 0.985,0.012 1.488,0.059 l -0.118,-0.89 c -0.014,-0.47 -0.066,-1.181 -0.15,-2.138 -0.076,-0.953 -0.119,-1.669 -0.136,-2.128 l -0.025,-0.824 c -0.019,-0.474 -0.03,-0.923 -0.036,-1.377 -0.009,-0.459 0.025,-0.914 0.096,-1.368 0.072,-0.454 0.152,-0.839 0.263,-1.125 0.106,-0.294 0.314,-0.593 0.621,-0.918 0.544,-0.534 1.228,-0.82 2.058,-0.85 0.872,-0.019 1.547,0.126 2.047,0.432 0.493,0.318 0.923,0.874 1.281,1.676 0.156,0.353 0.266,0.857 0.323,1.496 0.057,0.641 0.096,1.414 0.129,2.283 0.018,0.617 0.021,1.516 0.015,2.755 -0.015,1.217 -0.01,2.138 0.009,2.754 0.222,-0.046 0.38,-0.072 0.479,-0.091 0.092,-0.023 0.245,-0.027 0.453,-0.034 0.185,0 0.329,0 0.442,0.007 C -0.369,-0.06 -0.205,-0.037 0,0"
             style="fill:#5589CD;fill-opacity:1;fill-rule:nonzero;stroke:none"
             id="path52" />
        </g>
        <g
           id="g54"
           transform="translate(307.8887,180.6924)">
          <path
             d="M 0,0 0.229,5.534 C 0.33,5.546 0.464,5.546 0.646,5.529 0.824,5.504 0.933,5.504 0.968,5.504 1.14,5.529 1.283,5.546 1.416,5.594 1.53,5.638 1.639,5.647 1.708,5.685 2.409,4.453 2.949,3.522 3.329,2.918 3.476,2.666 4.035,1.75 5.021,0.183 5.58,-0.735 6.15,-1.644 6.724,-2.542 l 0.878,2.196 c 0.92,2.306 1.775,4.581 2.559,6.816 l 0.205,-0.013 c 0.109,-0.024 0.208,-0.024 0.299,-0.005 0.097,0.005 0.195,0.01 0.301,0.018 0.294,0.029 0.541,0.071 0.741,0.145 0.449,-2.194 0.829,-3.959 1.125,-5.351 0.307,-1.353 0.533,-2.382 0.684,-3.076 l 0.733,-3.139 C 14.267,-5 14.296,-5.1 14.351,-5.287 c 0.058,-0.173 0.088,-0.311 0.098,-0.4 -0.208,-0.024 -0.491,-0.037 -0.856,-0.037 -0.359,-0.017 -0.578,-0.017 -0.65,-0.022 -0.21,-0.025 -0.483,-0.049 -0.834,-0.123 -0.348,-0.069 -0.555,-0.099 -0.637,-0.111 -0.101,1.172 -0.318,2.52 -0.637,4.005 -0.32,1.487 -0.621,2.928 -0.913,4.329 C 9.547,1.367 9.177,0.396 8.809,-0.572 8.441,-1.545 8.076,-2.513 7.716,-3.478 7.469,-4.137 7.126,-5.124 6.671,-6.425 c -0.204,0 -0.343,0 -0.446,-0.005 C 6.183,-6.441 6.092,-6.452 5.976,-6.496 L 4.3,-3.707 C 3.744,-2.801 3.238,-1.954 2.774,-1.194 2.253,-0.353 1.737,0.479 1.212,1.325 L 1.14,-1.928 1.149,-3.998 1.187,-5.795 1.224,-6.94 c -0.272,0.029 -0.469,0.037 -0.582,0.029 -0.117,0 -0.212,-0.005 -0.287,-0.025 -0.254,-0.014 -0.533,-0.074 -0.829,-0.158 -0.01,0.094 -0.01,0.208 0.004,0.341 -0.004,0.029 0.023,0.144 0.06,0.336 0.034,0.299 0.076,0.765 0.131,1.39 0.027,0.471 0.061,0.987 0.108,1.542 0.052,0.552 0.082,1.17 0.114,1.856 C -0.03,-0.933 -0.015,-0.388 0,0"
             style="fill:#5589CD;fill-opacity:1;fill-rule:nonzero;stroke:none"
             id="path56" />
        </g>
        <g
           id="g58"
           transform="translate(331.791,183.585)">
          <path
             d="M 0,0 C 0.069,0.03 0.155,0.062 0.262,0.114 0.37,0.151 0.469,0.187 0.558,0.218 1.328,0.47 1.97,0.444 2.482,0.176 3.001,-0.101 3.396,-0.671 3.67,-1.525 3.841,-2.065 3.851,-2.621 3.683,-3.208 3.599,-3.524 3.44,-3.796 3.209,-3.993 2.979,-4.208 2.705,-4.358 2.379,-4.467 L 1.508,-4.694 0.78,-2.52 Z M 3.979,2.989 C 4.394,3.698 4.482,4.434 4.235,5.213 3.932,6.151 3.35,6.738 2.482,6.966 1.768,7.168 0.908,7.109 -0.089,6.798 l -2.5,-0.844 -1.987,-0.58 c 0.168,-0.536 0.444,-1.318 0.829,-2.36 0.38,-1.035 0.656,-1.819 0.824,-2.337 0.018,-0.076 0.225,-0.761 0.615,-2.046 0.38,-1.284 0.664,-2.209 0.837,-2.768 0.125,-0.399 0.244,-0.814 0.366,-1.268 0.118,-0.445 0.207,-0.839 0.263,-1.18 l 1.498,0.538 2.58,0.76 c 0.222,0.072 0.437,0.148 0.649,0.232 0.207,0.092 0.375,0.163 0.489,0.235 0.446,0.239 0.797,0.466 1.049,0.689 0.328,0.293 0.585,0.607 0.763,0.977 0.399,0.874 0.46,1.743 0.179,2.629 C 6.099,0.318 5.559,0.919 4.744,1.264 4.364,1.415 3.951,1.496 3.52,1.496 3.09,1.516 2.681,1.474 2.311,1.36 L 2.266,1.496 c 0.77,0.39 1.345,0.889 1.713,1.493 m -5.168,0.852 c -0.178,0.646 -0.307,1.084 -0.391,1.357 0.218,0.114 0.37,0.193 0.452,0.228 0.089,0.019 0.2,0.053 0.348,0.103 0.494,0.163 0.982,0.139 1.468,-0.05 C 0.894,5.411 1.094,5.224 1.298,4.925 1.5,4.648 1.639,4.379 1.713,4.14 1.826,3.767 1.881,3.421 1.851,3.081 1.826,2.716 1.728,2.39 1.54,2.115 1.357,1.822 1.152,1.612 0.913,1.486 0.681,1.36 0.37,1.229 -0.029,1.111 -0.099,1.086 -0.187,1.062 -0.311,1.013 l -0.597,1.816 c -0.008,0.039 -0.104,0.383 -0.281,1.012"
             style="fill:#5589CD;fill-opacity:1;fill-rule:nonzero;stroke:none"
             id="path60" />
        </g>
        <g
           id="g62"
           transform="translate(337.2949,192.1309)">
          <path
             d="M 0,0 -0.111,0.222 C 0.173,0.355 0.612,0.558 1.21,0.804 1.807,1.051 2.254,1.259 2.55,1.401 3.075,1.653 3.776,2.001 4.65,2.476 5.52,2.941 6.055,3.218 6.228,3.302 6.284,3.072 6.378,2.828 6.507,2.557 6.538,2.492 6.575,2.418 6.625,2.35 6.669,2.258 6.722,2.174 6.788,2.061 L 6.914,1.888 C 6.502,1.683 5.862,1.401 4.993,1.066 4.132,0.72 3.487,0.449 3.07,0.246 l 0.805,-1.723 0.879,-1.845 3.668,1.968 C 8.481,-1.538 8.535,-1.698 8.585,-1.837 8.624,-1.965 8.674,-2.079 8.713,-2.167 8.787,-2.306 8.847,-2.417 8.905,-2.503 8.965,-2.58 9.029,-2.664 9.104,-2.75 8.787,-2.903 8.291,-3.12 7.622,-3.39 6.956,-3.668 6.452,-3.886 6.111,-4.049 L 5.3,-4.429 6.299,-6.531 7.336,-8.585 c 1.157,0.567 2.39,1.264 3.692,2.07 0.049,-0.233 0.144,-0.47 0.277,-0.742 0.037,-0.059 0.069,-0.143 0.118,-0.215 0.047,-0.071 0.098,-0.175 0.163,-0.269 l 0.129,-0.188 c -0.329,-0.16 -0.83,-0.389 -1.501,-0.68 C 9.537,-8.886 9.034,-9.113 8.69,-9.286 l -1.912,-1.007 -1.436,-0.75 -0.41,0.957 -1.427,3.11 -1.197,2.51 -0.946,1.916 C 1.157,-2.118 0.997,-1.812 0.879,-1.6 0.296,-0.544 0,-0.01 0,0"
             style="fill:#5589CD;fill-opacity:1;fill-rule:nonzero;stroke:none"
             id="path64" />
        </g>
        <g
           id="g66"
           transform="translate(353.7783,187.083)">
          <path
             d="m 0,0 -0.114,-0.066 -0.615,-0.351 c -0.205,-0.168 -0.409,-0.355 -0.619,-0.588 -0.627,1.012 -1.397,2.167 -2.3,3.466 -0.894,1.293 -1.785,2.522 -2.662,3.707 l -1.779,2.33 -0.54,0.671 c 0.276,0.131 0.511,0.282 0.708,0.425 0.195,0.143 0.393,0.336 0.605,0.567 0.652,-0.118 1.93,-0.357 3.833,-0.698 C -2.217,9.241 -0.938,9.007 0.351,8.779 1.981,8.464 3.268,8.217 4.206,8.024 l -2.399,3.241 -1.24,1.612 c -0.138,0.197 -0.373,0.478 -0.696,0.844 -0.32,0.37 -0.562,0.651 -0.716,0.861 l -0.221,0.265 c 0.163,0.084 0.3,0.167 0.421,0.226 0.117,0.068 0.215,0.139 0.29,0.193 0.074,0.047 0.169,0.138 0.3,0.282 0.134,0.118 0.24,0.207 0.312,0.268 l 0.567,-0.837 c 0.16,-0.211 0.321,-0.451 0.479,-0.715 0.425,-0.652 0.691,-1.059 0.809,-1.214 0.336,-0.462 0.687,-0.953 1.057,-1.487 0.37,-0.544 0.669,-0.987 0.923,-1.328 L 5.208,8.74 7.527,5.635 7.34,5.546 C 7.173,5.475 7.02,5.383 6.886,5.284 6.698,5.139 6.509,4.954 6.323,4.751 4.979,5.055 4.003,5.27 3.411,5.398 2.374,5.625 1.39,5.827 0.464,6 -0.232,6.139 -1.215,6.307 -2.493,6.521 L -5.342,6.995 -3.915,5 -2.91,3.685 C -2.681,3.354 -2.068,2.599 -1.086,1.38 -0.691,0.898 -0.336,0.444 0,0"
             style="fill:#5589CD;fill-opacity:1;fill-rule:nonzero;stroke:none"
             id="path68" />
        </g>
        <g
           id="g70"
           transform="translate(355.5498,204.3135)">
          <path
             d="M 0,0 -0.173,0.153 C 0.035,0.4 0.371,0.741 0.83,1.197 1.294,1.654 1.632,1.999 1.856,2.251 2.247,2.681 2.765,3.269 3.404,4.023 4.043,4.778 4.424,5.221 4.562,5.366 4.7,5.184 4.875,4.986 5.095,4.796 5.149,4.742 5.218,4.69 5.285,4.628 5.356,4.581 5.443,4.507 5.542,4.438 L 5.727,4.317 C 5.421,3.975 4.922,3.479 4.251,2.839 3.572,2.209 3.078,1.713 2.765,1.37 L 4.152,0.069 5.65,-1.308 8.328,1.866 C 8.457,1.718 8.57,1.597 8.654,1.491 8.748,1.383 8.832,1.299 8.908,1.228 9.021,1.126 9.123,1.047 9.207,0.992 9.288,0.938 9.38,0.884 9.479,0.832 9.244,0.568 8.866,0.183 8.343,-0.318 7.827,-0.814 7.439,-1.209 7.193,-1.485 l -0.622,-0.66 1.718,-1.567 1.718,-1.54 c 0.874,0.97 1.752,2.059 2.656,3.292 0.14,-0.185 0.317,-0.382 0.532,-0.572 0.058,-0.044 0.119,-0.099 0.196,-0.17 0.071,-0.047 0.155,-0.114 0.256,-0.173 l 0.185,-0.131 c -0.246,-0.265 -0.626,-0.667 -1.144,-1.175 -0.517,-0.538 -0.904,-0.928 -1.154,-1.215 l -1.409,-1.628 -1.052,-1.242 -0.735,0.738 -2.481,2.36 -2.05,1.886 -1.595,1.427 C 1.876,-1.545 1.609,-1.312 1.422,-1.157 0.481,-0.385 0.011,0 0,0"
             style="fill:#5589CD;fill-opacity:1;fill-rule:nonzero;stroke:none"
             id="path72" />
        </g>
        <g
           id="g74"
           transform="translate(361.2373,210.8594)">
          <path
             d="M 0,0 -0.197,0.131 C -0.02,0.388 0.262,0.79 0.654,1.304 1.044,1.812 1.328,2.207 1.51,2.483 1.844,2.975 2.266,3.633 2.796,4.473 3.319,5.305 3.638,5.812 3.746,5.969 3.914,5.812 4.117,5.638 4.356,5.473 4.418,5.436 4.492,5.394 4.568,5.342 4.652,5.292 4.744,5.25 4.853,5.184 L 5.05,5.1 C 4.788,4.699 4.376,4.149 3.796,3.411 3.221,2.688 2.804,2.138 2.542,1.748 L 4.102,0.656 5.775,-0.498 7.97,3.041 C 8.12,2.913 8.244,2.799 8.353,2.705 8.459,2.616 8.558,2.542 8.634,2.483 8.767,2.39 8.881,2.33 8.975,2.285 9.059,2.251 9.157,2.207 9.266,2.172 9.065,1.874 8.745,1.441 8.303,0.874 7.861,0.304 7.535,-0.138 7.32,-0.451 L 6.807,-1.18 8.558,-2.359 11.832,-4.408 C 11.729,-4.559 11.566,-4.781 11.334,-5.062 11.112,-5.349 10.967,-5.536 10.907,-5.617 10.796,-5.79 10.647,-6.027 10.48,-6.331 10.308,-6.649 10.201,-6.835 10.154,-6.906 L 9.322,-6.26 6.531,-4.295 4.24,-2.715 2.458,-1.522 C 2.073,-1.264 1.782,-1.081 1.569,-0.952 0.535,-0.326 0.005,-0.015 0,0"
             style="fill:#5589CD;fill-opacity:1;fill-rule:nonzero;stroke:none"
             id="path76" />
        </g>
        <g
           id="g78"
           transform="translate(367.1211,221.0088)">
          <path
             d="m 0,0 c 0.237,-0.128 0.494,-0.269 0.775,-0.449 0.697,-0.432 1.141,-0.697 1.324,-0.792 0.352,-0.197 0.873,-0.477 1.557,-0.879 0.684,-0.402 1.206,-0.689 1.563,-0.881 0.364,-0.198 0.929,-0.467 1.692,-0.84 0.761,-0.346 1.333,-0.638 1.718,-0.831 0.19,-0.101 0.701,-0.334 1.525,-0.694 0.339,-0.155 0.645,-0.301 0.924,-0.445 C 10.994,-5.993 10.851,-6.223 10.661,-6.517 10.474,-6.802 10.364,-6.982 10.327,-7.049 10.101,-7.474 9.878,-7.978 9.661,-8.516 9.057,-8.204 8.326,-7.797 7.474,-7.294 5.549,-6.15 4.332,-5.45 3.829,-5.188 l -0.884,0.469 -2.1,1.061 c -0.304,0.153 -0.608,0.304 -0.907,0.459 -0.308,0.138 -0.752,0.326 -1.325,0.57 0.099,0.173 0.244,0.425 0.43,0.719 0.192,0.299 0.306,0.472 0.341,0.543 0.097,0.192 0.221,0.456 0.357,0.785 0.136,0.33 0.23,0.528 0.259,0.582"
             style="fill:#5589CD;fill-opacity:1;fill-rule:nonzero;stroke:none"
             id="path80" />
        </g>
        <g
           id="g82"
           transform="translate(381.4814,228.7637)">
          <path
             d="M 0,0 0.168,0.198 1.481,-0.745 C 1.545,-1.317 1.53,-1.93 1.422,-2.557 1.323,-3.174 1.158,-3.796 0.924,-4.403 0.721,-4.94 0.517,-5.391 0.312,-5.756 0.286,-5.785 0.124,-6.049 -0.18,-6.545 -0.341,-6.787 -0.57,-7.062 -0.868,-7.354 -1.175,-7.646 -1.451,-7.883 -1.703,-8.07 c -0.246,-0.183 -0.535,-0.344 -0.854,-0.494 -0.247,-0.102 -0.538,-0.215 -0.861,-0.311 -0.63,-0.173 -1.257,-0.247 -1.879,-0.21 -0.629,0.037 -1.268,0.175 -1.918,0.419 -1.056,0.408 -1.917,0.892 -2.574,1.479 -0.647,0.583 -1.165,1.352 -1.535,2.331 -0.301,0.826 -0.419,1.7 -0.356,2.66 0.07,0.938 0.277,1.866 0.622,2.776 0.235,0.617 0.538,1.192 0.913,1.748 0.375,0.566 0.791,1.044 1.24,1.44 0.207,-0.144 0.457,-0.317 0.755,-0.514 0.292,-0.197 0.58,-0.375 0.837,-0.553 L -7.402,2.469 C -7.978,2.323 -8.506,2.049 -8.962,1.654 -9.429,1.252 -9.771,0.766 -9.986,0.203 c -0.503,-1.323 -0.356,-2.557 0.456,-3.682 0.709,-0.988 1.76,-1.749 3.147,-2.277 0.656,-0.257 1.306,-0.406 1.965,-0.473 0.666,-0.065 1.288,-0.01 1.891,0.163 0.594,0.172 1.121,0.498 1.585,0.953 0.463,0.441 0.809,0.962 1.041,1.579 0.203,0.523 0.287,1.103 0.266,1.755 C 0.346,-1.13 0.22,-0.548 0,0"
             style="fill:#5589CD;fill-opacity:1;fill-rule:nonzero;stroke:none"
             id="path84" />
        </g>
        <g
           id="g86"
           transform="translate(373.0596,237.4102)">
          <path
             d="m 0,0 c 0.257,-0.071 0.554,-0.155 0.859,-0.264 0.776,-0.261 1.264,-0.429 1.466,-0.478 0.391,-0.102 0.96,-0.27 1.716,-0.514 0.758,-0.232 1.33,-0.41 1.721,-0.518 0.404,-0.089 1.011,-0.238 1.836,-0.422 0.824,-0.175 1.441,-0.324 1.856,-0.432 0.207,-0.05 0.763,-0.156 1.649,-0.341 0.358,-0.074 0.696,-0.143 0.997,-0.229 -0.044,-0.186 -0.131,-0.443 -0.247,-0.771 -0.121,-0.323 -0.188,-0.528 -0.205,-0.599 -0.126,-0.467 -0.235,-0.988 -0.329,-1.576 -0.656,0.178 -1.456,0.408 -2.401,0.714 -2.13,0.669 -3.473,1.083 -4.025,1.222 l -0.96,0.257 -2.291,0.567 c -0.326,0.084 -0.655,0.176 -0.985,0.247 -0.326,0.065 -0.8,0.156 -1.417,0.247 0.055,0.207 0.141,0.477 0.262,0.804 0.118,0.344 0.185,0.549 0.207,0.612 0.062,0.218 0.113,0.504 0.176,0.845 C -0.057,-0.269 -0.017,-0.071 0,0"
             style="fill:#5589CD;fill-opacity:1;fill-rule:nonzero;stroke:none"
             id="path88" />
        </g>
        <g
           id="g90"
           transform="translate(380.6299,252.1133)">
          <path
             d="M 0,0 C -0.479,-0.02 -0.978,-0.083 -1.488,-0.212 -2.002,-0.335 -2.476,-0.527 -2.915,-0.804 -3.29,-1.012 -3.689,-1.348 -4.102,-1.792 -4.613,-2.324 -5.022,-2.927 -5.324,-3.599 -5.63,-4.27 -5.842,-5.013 -5.966,-5.803 -6.113,-6.768 -6.119,-7.69 -5.976,-8.56 c 0.129,-0.869 0.445,-1.705 0.939,-2.49 0.483,-0.79 1.115,-1.429 1.892,-1.932 0.773,-0.479 1.637,-0.792 2.573,-0.949 0.952,-0.142 1.839,-0.142 2.653,0.013 0.81,0.155 1.574,0.516 2.285,1.029 0.711,0.534 1.279,1.2 1.703,2.019 0.415,0.819 0.702,1.688 0.845,2.637 0.158,0.992 0.162,1.91 0.026,2.763 -0.139,0.865 -0.461,1.684 -0.955,2.469 -0.49,0.803 -1.134,1.437 -1.922,1.936 -0.792,0.503 -1.644,0.819 -2.57,0.961 C 0.97,-0.02 0.472,0.011 0,0 m 3.858,-10.647 c -0.967,-0.445 -2.118,-0.558 -3.441,-0.361 -0.713,0.104 -1.395,0.277 -2.046,0.479 -0.654,0.217 -1.236,0.504 -1.75,0.851 -0.511,0.365 -0.931,0.837 -1.254,1.469 -0.202,0.37 -0.32,0.716 -0.352,0.997 -0.033,0.301 -0.015,0.672 0.056,1.146 0.198,1.255 0.894,2.149 2.096,2.675 1.007,0.432 2.18,0.553 3.52,0.341 0.693,-0.106 1.352,-0.266 1.966,-0.484 0.613,-0.227 1.156,-0.516 1.634,-0.863 0.606,-0.485 1.052,-1.018 1.323,-1.598 0.282,-0.6 0.364,-1.271 0.252,-1.982 -0.187,-1.279 -0.859,-2.157 -2.004,-2.67"
             style="fill:#5589CD;fill-opacity:1;fill-rule:nonzero;stroke:none"
             id="path92" />
        </g>
        <g
           id="g94"
           transform="translate(273.876,224.4102)">
          <path
             d="M 0,0 0.016,3.468 -0.128,3.569 C -0.835,3.167 -1.608,2.767 -2.448,2.382 -2.566,2.579 -2.691,2.767 -2.824,2.923 -2.955,3.096 -3.122,3.258 -3.32,3.448 v 0.16 c 0.985,0.322 2.012,0.716 3.081,1.18 0.823,0.368 1.817,0.855 3,1.464 L 3.158,6.089 C 3.158,5.228 3.138,4.191 3.1,3.023 3.004,0.276 2.953,-1.451 2.953,-2.157 v -1.264 c 0,-0.518 0.02,-1.304 0.066,-2.364 0.035,-1.047 0.059,-1.844 0.059,-2.39 L 2.887,-8.15 c -0.405,0.035 -0.706,0.049 -0.909,0.072 -0.197,0.005 -0.382,0.012 -0.549,0.012 -0.219,0 -0.534,-0.012 -0.934,-0.049 -0.409,-0.035 -0.651,-0.06 -0.734,-0.06 l 0.132,1.649 c 0,1.005 0.017,2.286 0.054,3.831 C -0.027,-1.133 0,-0.247 0,0"
             style="fill:#5589CD;fill-opacity:1;fill-rule:nonzero;stroke:none"
             id="path96" />
        </g>
        <g
           id="g98"
           transform="translate(289.2246,216.9609)">
          <path
             d="m 0,0 c 0.048,-0.143 0.097,-0.289 0.149,-0.464 0.055,-0.165 0.143,-0.266 0.237,-0.279 0.099,-0.031 0.175,-0.054 0.231,-0.091 0.255,-0.072 0.443,-0.124 0.571,-0.144 0.124,0 0.336,-0.009 0.632,-0.009 1.001,0 1.959,0.227 2.872,0.698 0.912,0.481 1.646,1.113 2.196,1.935 0.547,0.823 0.951,1.743 1.203,2.762 0.251,1.028 0.376,2.088 0.376,3.185 0,0.755 -0.094,1.495 -0.293,2.22 -0.197,0.732 -0.488,1.374 -0.886,1.912 -0.46,0.587 -1.046,1.036 -1.739,1.322 -0.701,0.281 -1.465,0.42 -2.295,0.42 -0.659,0 -1.261,-0.084 -1.799,-0.281 C 0.91,12.983 0.414,12.696 -0.018,12.27 -0.58,11.699 -0.953,11.161 -1.144,10.636 -1.333,10.101 -1.431,9.424 -1.431,8.617 -1.431,7.449 -1.033,6.502 -0.24,5.808 0.561,5.09 1.545,4.754 2.73,4.754 c 1.041,0 1.878,0.336 2.51,1.054 L 5.39,5.736 V 5.521 C 5.39,4.191 5.114,2.986 4.563,1.921 3.874,0.58 2.925,-0.091 1.712,-0.091 1.416,-0.091 1.09,0.01 0.725,0.207 0.521,0.321 0.24,0.514 -0.142,0.785 L -0.291,0.635 C -0.134,0.341 -0.036,0.123 0,0 M 5.007,7.029 C 4.705,6.304 4.222,5.946 3.573,5.946 2.956,5.946 2.504,6.22 2.215,6.777 2.042,7.131 1.914,7.659 1.839,8.382 L 1.778,9.33 c 0,0.771 0.112,1.449 0.339,1.999 0.306,0.79 0.784,1.19 1.436,1.19 0.744,0 1.259,-0.447 1.543,-1.332 C 5.264,10.673 5.352,9.939 5.352,8.97 5.352,8.215 5.231,7.562 5.007,7.029"
             style="fill:#5589CD;fill-opacity:1;fill-rule:nonzero;stroke:none"
             id="path100" />
        </g>
        <g
           id="g102"
           transform="translate(305.2344,221.2158)">
          <path
             d="m 0,0 c 0.024,-0.207 0.03,-0.395 0.03,-0.56 0,-0.192 -0.003,-0.358 -0.02,-0.503 0,-0.038 -0.018,-0.193 -0.064,-0.487 H 5.48 c 0,-0.68 -0.022,-1.322 -0.064,-1.91 -0.042,-0.588 -0.081,-1.084 -0.131,-1.52 0.074,0 0.307,0.024 0.692,0.059 0.384,0.037 0.688,0.049 0.918,0.049 0.291,0 0.542,-0.007 0.748,-0.024 0.202,-0.025 0.426,-0.047 0.669,-0.06 L 8.499,-4.98 8.457,-4.62 8.396,-3.727 8.331,-1.55 10.123,-1.681 c -0.044,0.388 -0.061,0.647 -0.074,0.763 -0.005,0.104 -0.01,0.262 -0.01,0.459 0,0.247 0.005,0.449 0.023,0.643 0.017,0.181 0.034,0.37 0.061,0.567 L 8.331,0.625 8.37,4.626 8.415,6.704 c 0,0.099 0.029,0.61 0.084,1.56 C 8.517,8.499 8.517,8.8 8.517,9.162 8.113,9.073 7.657,9.02 7.146,9.02 6.954,9.02 6.717,9.044 6.45,9.073 6.182,9.115 6.014,9.147 5.946,9.147 L 5.754,9.162 C 5.458,8.674 5.063,8.044 4.574,7.314 4.308,6.906 3.888,6.29 3.325,5.475 L 1.803,3.175 -0.054,0.465 C -0.041,0.365 -0.024,0.198 0,0 m 3.854,4.482 c 0.73,1.094 1.219,1.823 1.46,2.161 H 5.458 V 0.704 H 1.553 L 1.447,0.835 c 1.027,1.574 1.834,2.784 2.407,3.647"
             style="fill:#5589CD;fill-opacity:1;fill-rule:nonzero;stroke:none"
             id="path104" />
        </g>
        <g
           id="g106"
           transform="translate(330.5439,230.2598)">
          <path
             d="m 0,0 c -0.281,0.071 -0.634,0.104 -1.056,0.104 h -0.378 c -0.153,-0.02 -0.449,-0.062 -0.898,-0.138 -0.444,-0.074 -0.864,-0.193 -1.271,-0.336 -0.4,-0.168 -0.783,-0.373 -1.143,-0.642 -1.02,-0.79 -1.787,-1.915 -2.305,-3.377 -0.437,-1.258 -0.652,-2.616 -0.652,-4.085 0,-0.743 0.084,-1.453 0.262,-2.12 0.175,-0.68 0.463,-1.31 0.859,-1.885 0.39,-0.568 0.913,-1.037 1.577,-1.373 0.281,-0.143 0.637,-0.256 1.073,-0.353 0.427,-0.081 0.823,-0.125 1.191,-0.125 1.404,0 2.591,0.424 3.544,1.293 0.96,0.839 1.436,1.977 1.436,3.372 0,1.253 -0.41,2.228 -1.224,2.946 -0.815,0.726 -1.851,1.079 -3.1,1.079 -0.963,0 -1.758,-0.343 -2.387,-1.053 l -0.145,0.084 c 0,0.68 0.076,1.341 0.246,2.004 0.087,0.335 0.195,0.73 0.331,1.194 0.133,0.442 0.358,0.874 0.677,1.286 0.315,0.396 0.648,0.719 0.999,0.94 0.439,0.287 0.886,0.42 1.355,0.42 0.222,0 0.445,-0.015 0.661,-0.035 0.218,-0.024 0.42,-0.074 0.608,-0.14 l 0.123,0.121 C 0.26,-0.556 0.126,-0.286 0,0 m -4.242,-7.915 c 0.31,0.705 0.79,1.078 1.431,1.078 0.736,0 1.245,-0.415 1.526,-1.225 0.168,-0.517 0.252,-1.226 0.252,-2.129 0,-0.797 -0.107,-1.479 -0.315,-2.024 -0.298,-0.803 -0.774,-1.192 -1.438,-1.192 -0.745,0 -1.259,0.449 -1.54,1.328 -0.173,0.528 -0.255,1.259 -0.255,2.221 0,0.755 0.111,1.402 0.339,1.943"
             style="fill:#5589CD;fill-opacity:1;fill-rule:nonzero;stroke:none"
             id="path108" />
        </g>
        <g
           id="g110"
           transform="translate(143.3574,312.9424)">
          <path
             d="m 0,0 c 4.764,0 8.627,3.871 8.627,8.618 0,4.774 -3.863,8.63 -8.627,8.63 -4.766,0 -8.63,-3.856 -8.63,-8.63 C -8.63,3.871 -4.766,0 0,0"
             style="fill:#5589CD;fill-opacity:1;fill-rule:nonzero;stroke:none"
             id="path112" />
        </g>
        <g
           id="g114"
           transform="translate(460.9736,315.7515)">
          <path
             d="m 0,0 c 4.764,0 8.627,3.869 8.627,8.625 0,4.767 -3.863,8.629 -8.627,8.629 -4.764,0 -8.624,-3.862 -8.624,-8.629 C -8.624,3.869 -4.764,0 0,0"
             style="fill:#5589CD;fill-opacity:1;fill-rule:nonzero;stroke:none"
             id="path116" />
        </g>
        <g
           id="g118"
           transform="translate(149.4082,385.9482)">
          <path
             d="m 0,0 8.765,11.763 -2.525,1.694 3.606,4.827 2.53,-1.672 8.886,11.936 L 25.02,26.021 3.71,-2.581 Z"
             style="fill:#5589CD;fill-opacity:1;fill-rule:nonzero;stroke:none"
             id="path120" />
        </g>
        <g
           id="g122"
           transform="translate(179.0166,391.2441)">
          <path
             d="m 0,0 -5.945,3.969 -4.191,-5.623 5.94,-3.97 z"
             style="fill:#5589CD;fill-opacity:1;fill-rule:nonzero;stroke:none"
             id="path124" />
        </g>
        <g
           id="g126"
           transform="translate(187.9204,402.8486)">
          <path
             d="m 0,0 -3.667,2.455 -21.661,-29.074 3.667,-2.456 z"
             style="fill:#5589CD;fill-opacity:1;fill-rule:nonzero;stroke:none"
             id="path128" />
        </g>
        <g
           id="g130"
           transform="translate(169.1865,393.5962)">
          <path
             d="M 0,0 C 2.499,3.353 3.245,6.923 1.673,7.965 0.104,9.025 -3.193,7.151 -5.681,3.796 -8.181,0.461 -8.926,-3.107 -7.362,-4.168 -5.789,-5.217 -2.489,-3.353 0,0 m 1.191,-5.217 c -4.554,-4.694 -9.927,-6.832 -12.926,-4.814 -3.549,2.372 -2.441,9.642 2.464,16.23 C -4.358,12.792 2.501,16.218 6.05,13.844 9.018,11.856 8.736,6.468 5.705,0.905"
             style="fill:#5589CD;fill-opacity:1;fill-rule:nonzero;stroke:none"
             id="path132" />
        </g>
        <g
           id="g134"
           transform="translate(185.9028,382.71)">
          <path
             d="M 0,0 C 3.275,4.401 4.048,9.223 1.731,10.785 -0.59,12.33 -5.129,10.031 -8.402,5.629 -11.677,1.228 -12.458,-3.583 -10.13,-5.139 -7.81,-6.69 -3.271,-4.396 0,0 m -13.375,-10.205 c -4.241,2.839 -3.402,10.846 1.862,17.911 5.257,7.073 12.958,10.499 17.19,7.672 C 9.911,12.545 9.076,4.521 3.811,-2.54 -1.453,-9.605 -9.15,-13.031 -13.375,-10.205"
             style="fill:#5589CD;fill-opacity:1;fill-rule:nonzero;stroke:none"
             id="path136" />
        </g>
        <g
           id="g138"
           transform="translate(242.8945,441.7861)">
          <path
             d="M 0,0 -10.387,14.887 -15.33,11.768 -4.94,-3.127 Z"
             style="fill:#5589CD;fill-opacity:1;fill-rule:nonzero;stroke:none"
             id="path140" />
        </g>
        <g
           id="g142"
           transform="translate(219.2734,424.9517)">
          <path
             d="M 0,0 24.643,15.504 32.835,3.768 27.675,0.521 22.038,8.606 2.547,-3.664 Z"
             style="fill:#5589CD;fill-opacity:1;fill-rule:nonzero;stroke:none"
             id="path144" />
        </g>
        <g
           id="g146"
           transform="translate(223.2856,434.8569)">
          <path
             d="M 0,0 C 1.958,1.234 2.308,4.019 0.775,6.216 -0.754,8.396 -3.585,9.175 -5.542,7.941 -7.5,6.713 -7.848,3.928 -6.317,1.737 -4.785,-0.45 -1.961,-1.227 0,0 m -11.082,-1.263 c -3.055,4.396 -1.817,10.282 2.77,13.173 4.59,2.894 10.794,1.678 13.848,-2.711 C 8.593,4.821 7.356,-1.078 2.773,-3.976 -1.818,-6.862 -8.02,-5.646 -11.082,-1.263"
             style="fill:#5589CD;fill-opacity:1;fill-rule:nonzero;stroke:none"
             id="path148" />
        </g>
        <g
           id="g150"
           transform="translate(300.4961,470.5068)">
          <path
             d="M 0,0 H -14.404 V -33.59 H 8.693 v 17.001 h 2.022 V -33.59 h 6.234 V 0 H 10.804 V -11.78 H 8.784 V -0.108 H 2.634 V -29.2 H -9.046 V -3.754 H 0 Z"
             style="fill:#5589CD;fill-opacity:1;fill-rule:nonzero;stroke:none"
             id="path152" />
        </g>
        <g
           id="g154"
           transform="translate(435.8477,412.8545)">
          <path
             d="m 0,0 17.756,-24.192 -25.152,-16.571 1.918,-2.622 -3.873,-2.545 -20.372,27.75 3.863,2.564 3.633,-4.954 15.836,10.433 3.681,-5.007 -15.906,-10.492 1.501,-2.042 15.989,10.54 3.545,-4.822 -16.01,-10.557 2.372,-3.407 21.299,14.032 -14.069,19.343 z"
             style="fill:#5589CD;fill-opacity:1;fill-rule:nonzero;stroke:none"
             id="path156" />
        </g>
        <g
           id="g158"
           transform="translate(373.8848,457.542)">
          <path
             d="m 0,0 15.396,-9.691 -2.078,-2.976 -15.325,9.643 z"
             style="fill:#5589CD;fill-opacity:1;fill-rule:nonzero;stroke:none"
             id="path160" />
        </g>
        <g
           id="g162"
           transform="translate(368.0176,454.8579)">
          <path
             d="M 0,0 20.819,-13.103 18.287,-16.75 -2.466,-3.695 Z"
             style="fill:#5589CD;fill-opacity:1;fill-rule:nonzero;stroke:none"
             id="path164" />
        </g>
        <g
           id="g166"
           transform="translate(393.5469,445.043)">
          <path
             d="m 0,0 5.79,-3.634 -6.106,-8.774 3.154,-2 -2.848,-4.09 -3.15,1.994 -2.893,-4.138 -5.647,3.551 z"
             style="fill:#5589CD;fill-opacity:1;fill-rule:nonzero;stroke:none"
             id="path168" />
        </g>
        <g
           id="g170"
           transform="translate(360.0303,439.8931)">
          <path
             d="m 0,0 26.685,-16.79 -6.714,-9.644 -5.86,3.678 3.87,5.569 -20.822,13.097 z"
             style="fill:#5589CD;fill-opacity:1;fill-rule:nonzero;stroke:none"
             id="path172" />
        </g>
        <g
           id="g174"
           transform="translate(371.0166,437.5039)">
          <path
             d="M 0,0 C 1.713,-1.083 4.294,-0.25 5.756,1.856 7.217,3.953 7.015,6.533 5.299,7.617 3.578,8.696 0.999,7.863 -0.465,5.773 -1.923,3.654 -1.721,1.083 0,0 m -5.334,8.833 c 2.448,3.533 8.017,4.138 12.423,1.359 C 11.502,7.419 13.084,2.324 10.628,-1.216 8.18,-4.743 2.606,-5.354 -1.797,-2.576 -6.205,0.192 -7.79,5.3 -5.334,8.833"
             style="fill:#5589CD;fill-opacity:1;fill-rule:nonzero;stroke:none"
             id="path176" />
        </g>
        <g
           id="g178"
           transform="translate(129.833,257.9932)">
          <path
             d="m 0,0 29.04,8.595 1.18,-3.964 -12.001,-3.565 4.474,-15.098 12,3.552 1.174,-3.969 -29.037,-8.6 -1.178,3.982 13.579,4.005 L 14.757,0.042 1.182,-3.983 Z"
             style="fill:#5589CD;fill-opacity:1;fill-rule:nonzero;stroke:none"
             id="path180" />
        </g>
        <g
           id="g182"
           transform="translate(163.7095,235.7295)">
          <path
             d="m 0,0 c -3.522,0.494 -7.106,-0.192 -10.758,-2.044 -4.04,-2.073 -6.849,-4.825 -8.418,-8.293 -1.536,-3.767 -1.242,-7.738 0.871,-11.882 2.262,-4.461 5.57,-7.084 9.928,-7.898 3.71,-0.689 7.586,0 11.615,2.06 3.722,1.886 6.325,4.328 7.805,7.336 1.897,3.856 1.634,8.167 -0.791,12.942 C 7.934,-3.229 4.518,-0.637 0,0 m -15.472,-12.079 c 1.281,2.557 3.413,4.598 6.401,6.106 3.735,1.917 7.01,2.473 9.827,1.688 2.817,-0.799 4.936,-2.584 6.355,-5.38 1.464,-2.884 1.65,-5.638 0.556,-8.284 -1.085,-2.651 -3.218,-4.779 -6.388,-6.39 -3.009,-1.533 -6.028,-2.163 -9.066,-1.903 -3.046,0.262 -5.389,2.018 -7.025,5.245 -1.727,3.396 -1.947,6.365 -0.66,8.918"
             style="fill:#5589CD;fill-opacity:1;fill-rule:nonzero;stroke:none"
             id="path184" />
        </g>
        <g
           id="g186"
           transform="translate(160.3379,190.126)">
          <path
             d="M 0,0 19.325,15.071 9.542,-12.234 12.366,-15.863 36.253,2.755 33.856,5.838 14.513,-9.251 24.448,17.9 21.469,21.713 -2.417,3.096 Z"
             style="fill:#5589CD;fill-opacity:1;fill-rule:nonzero;stroke:none"
             id="path188" />
        </g>
        <g
           id="g190"
           transform="translate(199.5742,184.9453)">
          <path
             d="m 0,0 c -4.037,-0.504 -7.701,-2.683 -10.992,-6.538 -3.293,-3.87 -4.815,-7.834 -4.564,-11.877 0.459,-3.437 2.051,-6.334 4.786,-8.664 2.114,-1.792 4.186,-2.9 6.216,-3.283 1.201,-0.256 2.824,-0.237 4.867,0.012 l -1.776,-3.611 2.01,-1.692 10.511,12.328 -10.121,8.622 -2.207,-2.584 7.216,-6.164 c -2.326,-2.67 -4.695,-4.018 -7.084,-4.072 -2.398,-0.039 -4.635,0.819 -6.719,2.599 -2.716,2.318 -3.946,4.845 -3.683,7.595 0.264,2.749 1.562,5.496 3.895,8.233 2.701,3.167 5.468,4.942 8.295,5.283 2.819,0.37 5.296,-0.366 7.428,-2.192 1.805,-1.533 2.974,-3.186 3.488,-4.967 0.534,-1.776 0.265,-3.657 -0.79,-5.676 l 3.091,-2.626 c 2.056,3.453 2.446,6.753 1.179,9.907 -0.862,2.187 -2.38,4.199 -4.545,6.037 C 7.338,-0.629 3.842,0.474 0,0"
             style="fill:#5589CD;fill-opacity:1;fill-rule:nonzero;stroke:none"
             id="path192" />
        </g>
        <g
           id="g194"
           transform="translate(212.2515,142.3975)">
          <path
             d="M 0,0 16.51,25.391 13.035,27.643 -3.476,2.259 Z"
             style="fill:#5589CD;fill-opacity:1;fill-rule:nonzero;stroke:none"
             id="path196" />
        </g>
        <g
           id="g198"
           transform="translate(218.5098,138.9424)">
          <path
             d="M 0,0 14.501,26.583 18.013,24.68 10.938,11.719 30.97,17.601 35.944,14.886 19.046,10.204 21.75,-11.862 17.066,-9.317 15.038,9.09 8.567,7.348 3.508,-1.916 Z"
             style="fill:#5589CD;fill-opacity:1;fill-rule:nonzero;stroke:none"
             id="path200" />
        </g>
        <g
           id="g202"
           transform="translate(265.6753,134.9658)">
          <path
             d="m 0,0 c -0.632,-3.678 -0.626,-6.585 0.017,-8.725 1.171,-3.922 4.285,-6.311 9.321,-7.188 5.037,-0.879 8.776,0.339 11.214,3.619 1.337,1.818 2.321,4.551 2.955,8.227 l 2.908,16.752 -4.1,0.712 -3.207,-18.437 c -0.37,-2.157 -1.002,-3.816 -1.879,-4.986 -1.647,-2.122 -4.181,-2.898 -7.603,-2.3 -2.863,0.493 -4.701,1.934 -5.53,4.319 -0.56,1.574 -0.659,3.45 -0.282,5.612 l 3.205,18.444 -4.108,0.706 z"
             style="fill:#5589CD;fill-opacity:1;fill-rule:nonzero;stroke:none"
             id="path204" />
        </g>
        <g
           id="g206"
           transform="translate(301.1475,116.9473)">
          <path
             d="M 0,0 -0.517,24.522 15.525,0.341 20.121,0.442 19.475,30.715 15.587,30.637 16.11,6.095 0.29,30.313 -4.56,30.199 -3.907,-0.073 Z"
             style="fill:#5589CD;fill-opacity:1;fill-rule:nonzero;stroke:none"
             id="path208" />
        </g>
        <g
           id="g210"
           transform="translate(335.6514,119.875)">
          <path
             d="M 0,0 -5.179,29.841 -9.261,29.145 -4.077,-0.706 Z"
             style="fill:#5589CD;fill-opacity:1;fill-rule:nonzero;stroke:none"
             id="path212" />
        </g>
        <g
           id="g214"
           transform="translate(333.7754,149.7881)">
          <path
             d="m 0,0 4.324,1.384 16.175,-21.896 0.293,27.178 4.374,1.412 -1.259,-32.225 -4.136,-1.328 z"
             style="fill:#5589CD;fill-opacity:1;fill-rule:nonzero;stroke:none"
             id="path216" />
        </g>
        <g
           id="g218"
           transform="translate(395.2246,143.1504)">
          <path
             d="m 0,0 -1.71,3.174 -16.175,-8.767 -4.885,9.031 14.699,7.965 -1.668,3.086 -14.701,-7.948 -4.384,8.086 15.911,8.6 -1.773,3.267 -19.415,-10.519 14.417,-26.653 z"
             style="fill:#5589CD;fill-opacity:1;fill-rule:nonzero;stroke:none"
             id="path220" />
        </g>
        <g
           id="g222"
           transform="translate(406.4287,151.123)">
          <path
             d="m 0,0 -8.15,10.115 7.278,5.855 c 1.306,1.049 2.377,1.677 3.224,1.881 1.491,0.335 2.897,-0.233 4.21,-1.711 l 3.36,-3.774 c 0.785,-0.893 1.343,-1.462 1.661,-1.738 0.326,-0.257 0.627,-0.454 0.891,-0.587 l 3.922,3.164 -0.429,0.521 c -0.664,-0.175 -1.393,0.037 -2.193,0.61 -0.473,0.34 -1.081,0.972 -1.84,1.846 l -2.657,3.065 c -1.157,1.328 -2.22,2.113 -3.176,2.34 -0.957,0.229 -2.043,0.173 -3.27,-0.197 0.616,1.384 0.844,2.766 0.705,4.139 -0.138,1.37 -0.779,2.767 -1.917,4.174 -2.18,2.72 -4.784,3.678 -7.807,2.893 -1.6,-0.41 -3.283,-1.343 -5.089,-2.787 l -10.92,-8.807 19,-23.576 z m -16.787,20.847 7.805,6.279 c 1.09,0.869 2.092,1.414 2.999,1.624 1.722,0.365 3.251,-0.281 4.605,-1.965 1.257,-1.555 1.686,-2.999 1.306,-4.3 -0.39,-1.302 -1.338,-2.556 -2.833,-3.754 l -7.386,-5.951 z"
             style="fill:#5589CD;fill-opacity:1;fill-rule:nonzero;stroke:none"
             id="path224" />
        </g>
        <g
           id="g226"
           transform="translate(428.5312,173.1641)">
          <path
             d="m 0,0 c 2.849,0.339 5.51,1.926 7.992,4.757 2.118,2.456 3.441,5.067 3.954,7.832 0.517,2.791 -0.483,5.289 -3.015,7.498 C 6.906,21.859 4.722,22.488 2.39,21.958 1.047,21.656 -0.474,20.884 -2.177,19.65 l -3.519,-2.564 c -2.372,-1.724 -3.994,-2.735 -4.863,-3.064 -1.326,-0.473 -2.552,-0.229 -3.672,0.744 -1.013,0.879 -1.558,2.063 -1.632,3.532 -0.06,1.461 0.688,3.102 2.283,4.929 1.972,2.255 3.959,3.341 5.976,3.238 1.088,-0.055 2.32,-0.555 3.674,-1.456 l 2.543,2.907 c -2.543,2.222 -5.119,2.986 -7.725,2.335 -2.626,-0.671 -4.969,-2.216 -7.055,-4.601 -2.27,-2.611 -3.366,-5.19 -3.292,-7.748 0.081,-2.574 1.149,-4.736 3.198,-6.546 1.891,-1.645 3.949,-2.162 6.166,-1.532 1.279,0.361 3.032,1.348 5.247,2.972 l 3.399,2.483 c 1.846,1.343 3.37,2.167 4.579,2.515 1.204,0.323 2.429,-0.066 3.668,-1.155 C 8.461,15.189 8.807,13.274 7.84,10.865 7.333,9.627 6.586,8.422 5.576,7.267 3.32,4.655 0.982,3.53 -1.427,3.807 -2.702,3.984 -4.023,4.596 -5.376,5.655 L -7.91,2.74 C -5.475,0.559 -2.839,-0.345 0,0"
             style="fill:#5589CD;fill-opacity:1;fill-rule:nonzero;stroke:none"
             id="path228" />
        </g>
        <g
           id="g230"
           transform="translate(450.9385,198.2764)">
          <path
             d="M 0,0 -25.036,17.056 -27.368,13.625 -2.341,-3.426 Z"
             style="fill:#5589CD;fill-opacity:1;fill-rule:nonzero;stroke:none"
             id="path232" />
        </g>
        <g
           id="g234"
           transform="translate(427.9658,217.6426)">
          <path
             d="M 0,0 11.398,21.779 14.595,20.111 9.854,11.063 33.492,-1.323 31.557,-5.011 7.926,7.377 3.187,-1.669 Z"
             style="fill:#5589CD;fill-opacity:1;fill-rule:nonzero;stroke:none"
             id="path236" />
        </g>
        <g
           id="g238"
           transform="translate(471.7012,240.8486)">
          <path
             d="m 0,0 1.251,3.91 -11.628,3.712 -13.74,16.404 -1.462,-4.571 11.219,-12.724 -16.518,-3.853 -1.456,-4.557 20.711,5.391 z"
             style="fill:#5589CD;fill-opacity:1;fill-rule:nonzero;stroke:none"
             id="path240" />
        </g>
        <g
           id="g242"
           transform="translate(260.293,343.3179)">
          <path
             d="m 0,0 v 28.528 h 63.032 v -9.353 h 1.777 V 30.301 H -1.772 v -32.08 h 23.38 V 0 Z"
             style="fill:#5589CD;fill-opacity:1;fill-rule:nonzero;stroke:none"
             id="path244" />
        </g>
        <g
           id="g246"
           transform="translate(321.1631,314.6567)">
          <path
             d="m 0,0 -0.869,-0.688 c -0.107,-1.78 0.299,-3.792 -0.341,-5.367 -0.609,-0.688 -1.604,-0.653 -2.483,-0.539 -0.405,0.335 -0.33,0.672 -0.348,1.168 h -2.954 l -0.321,-3.383 c 1.806,0.137 3.44,-0.754 4.645,1.059 0.965,-0.838 2.695,-1.442 2.75,-2.867 -0.225,-0.499 -0.743,-0.583 -1.153,-0.761 -0.242,-1.564 -0.272,-3.235 -0.729,-4.695 0.638,-0.221 1.472,-0.151 2.138,-0.072 1.528,5.94 2.16,12.192 2.7,18.492 C 4.743,2.12 6.656,2.024 8.273,1.388 8.5,0.962 7.861,0.742 7.532,0.671 L 7.197,0.592 C 5.785,-5.102 3.979,-10.648 1.752,-16.014 l 0.074,-0.131 6.109,0.473 c 0.135,2.641 -1.088,4.916 -1.943,7.257 0.82,-0.035 1.506,-0.749 2.153,-1.347 2.638,-2.341 4.122,-5.3 3.566,-8.804 -0.17,-0.747 -0.632,-1.483 -1.414,-1.735 -0.577,-0.162 -1.209,-0.055 -1.693,0.252 -0.827,0.754 -0.632,1.928 -0.669,3.029 -2.56,-0.688 -5.122,-1.862 -7.728,-2.701 -0.242,-0.304 -0.242,-1.048 -0.871,-0.719 -0.553,1.056 -0.782,2.282 -1.341,3.361 -0.493,-1.415 -1.52,-3.317 -3.23,-3.504 -0.556,-0.065 -1.393,-0.234 -1.671,0.414 -0.186,0.785 -0.018,2.094 -1.23,2.156 -0.478,0.226 -1.115,0.27 -1.461,0.73 1.5,0.341 3.826,-0.959 4.645,1.138 0.814,1.916 0.538,3.946 0.854,6.084 -1.081,0.156 -2.231,0.282 -3.367,0.132 -0.073,-0.737 -0.182,-1.271 -1.002,-1.521 -0.632,-0.138 -1.338,-0.264 -2.013,-0.126 -0.603,0.748 0,1.676 0,2.485 0.379,1.953 0.528,4.002 0.675,6.066 l 2.826,-1.371 2.867,0.084 c 0.261,1.623 -0.079,3.019 0.089,4.528 l -7.171,-0.018 c -0.072,0.208 -0.193,1.072 -0.303,1.251 l 7.471,0.012 1.414,1.418 C -1.669,2.06 0.354,1.545 0,0"
             style="fill:#5589CD;fill-opacity:1;fill-rule:nonzero;stroke:none"
             id="path248" />
        </g>
        <g
           id="g250"
           transform="translate(329.2783,290.7324)">
          <path
             d="M 0,0 C -0.553,-0.521 -1.466,-0.114 -2.152,-0.341 -1.229,-1.822 0.464,-2.315 1.9,-3.012 l 2.75,-0.68 C 4.707,-4.478 3.497,-4.552 3.438,-5.366 3.224,-5.888 3.308,-6.521 3.105,-7.06 c -1.56,0.437 -2.769,1.723 -4.033,2.819 l -0.41,-0.335 h -11.166 c -0.072,0.212 -0.381,0.809 -0.252,1.026 h 7.989 c 0.744,0.442 1.309,2.285 2.351,0.669 0.079,-0.047 0.096,-0.168 0.207,-0.131 -0.467,0.874 -1.094,1.466 -1.483,2.444 h -5.651 l -0.659,0.997 h 5.705 l 1.678,1.726 C -1.653,1.629 -0.464,1.13 0,0"
             style="fill:#5589CD;fill-opacity:1;fill-rule:nonzero;stroke:none"
             id="path252" />
        </g>
        <g
           id="g254"
           transform="translate(319.3389,290.0605)">
          <path
             d="M 0,0 C -0.057,-0.681 -0.892,-0.567 -1.355,-0.874 -3.473,-3.268 -6.089,-5.42 -8.938,-6.521 l -0.145,0.133 C -6.854,-3.767 -4.717,-1.15 -3.7,1.96 -2.437,1.377 -1.19,0.805 0,0"
             style="fill:#5589CD;fill-opacity:1;fill-rule:nonzero;stroke:none"
             id="path256" />
        </g>
        <g
           id="g258"
           transform="translate(326.874,276.582)">
          <path
             d="m 0,0 -0.755,-0.018 0.133,-0.468 C -0.79,-0.659 -0.963,-0.837 -1.145,-0.978 V -6.959 L 0,-6.924 Z m -4.171,-0.018 h -0.945 c 0.296,-0.306 0.037,-0.73 -0.262,-0.96 v -5.981 h 1.207 z m -4.443,0 H -9.69 v -6.941 h 1.076 z M 2.537,6.037 C 2.646,5.397 1.852,5.491 1.404,5.491 1.066,5.472 0.696,5.531 0.4,5.417 2.02,3.265 4.636,2.431 7.183,2.006 7.276,1.348 6.309,1.125 6.106,0.587 5.825,-0.018 5.864,-0.761 5.563,-1.355 4.67,-1.533 3.91,0.587 3.224,-1.035 v -5.444 c 0.572,0.394 0.948,1.268 1.54,1.88 0.933,-0.876 2.176,-1.666 2.7,-2.821 L 6.612,-8 -16.061,-7.976 c -0.373,-0.074 -0.355,0.904 -0.557,1.089 l 3.845,-0.072 v 7.546 c -1.281,-0.748 -2.451,-1.797 -3.903,-2.091 v 0.272 c 2.356,2.496 4.342,5.136 5.31,8.189 1.249,-0.592 2.584,-1.164 3.7,-2.011 C -7.797,4.383 -8.501,4.358 -8.949,4.215 -9.707,3.203 -10.638,2.389 -11.571,1.52 L -9.828,0.91 -0.37,0.92 0.992,1.935 C 0.139,3.006 -0.642,4.119 -1.145,5.349 L -1.427,5.491 H -6.938 C -7.147,5.659 -7.197,6.202 -7.249,6.432 H -1.54 L -0.084,7.91 C 0.884,7.471 1.832,6.898 2.537,6.037"
             style="fill:#5589CD;fill-opacity:1;fill-rule:nonzero;stroke:none"
             id="path260" />
        </g>
        <g
           id="g262"
           transform="translate(282.7271,317.5596)">
          <path
             d="m 0,0 c 0.279,-0.58 -0.58,-0.712 -0.802,-1.005 -0.257,-7.629 4.108,-15.043 11.096,-18.486 -0.114,-0.856 -0.487,0.065 -1.827,-0.75 -0.814,-0.496 -0.888,-2.059 -1.466,-2.083 -1.784,0.563 -3.045,2.496 -4.234,3.905 -2.954,3.982 -3.679,8.893 -4.314,13.845 -0.648,-6.934 -2.545,-14.738 -9.882,-17.529 -1.002,-0.329 -2.009,-0.825 -3.159,-0.61 l 0.072,0.245 c 8.732,4.299 9.699,14.205 9.345,23.205 C -3.422,0.534 -1.598,0.575 0,0"
             style="fill:#5589CD;fill-opacity:1;fill-rule:nonzero;stroke:none"
             id="path264" />
        </g>
        <path
           d="m 276.822,285.707 h -3.568 v -1.975 h 3.568 z m 0,3.302 h -3.568 v -1.969 h 3.568 z m -3.473,1.022 c 1.343,0.059 4.133,-0.434 4.701,1.511 0.965,-0.563 2.297,-1.225 2.892,-2.372 0.207,-0.706 -0.595,-0.778 -0.942,-1.079 l -0.01,-6.121 c -0.37,-0.855 -1.514,-0.776 -2.275,-0.776 -0.332,0.011 -0.669,0.119 -0.82,0.459 -0.073,0.252 0.223,0.816 -0.258,0.803 h -3.441 l -0.129,-0.265 0.053,-13.73 c -0.357,-0.832 -1.409,-0.738 -2.203,-0.808 -0.415,0 -0.813,0.173 -0.871,0.672 l -0.004,23.264 z"
           style="fill:#5589CD;fill-opacity:1;fill-rule:nonzero;stroke:none"
           id="path266" />
        <g
           id="g268"
           transform="translate(284.3623,281.1943)">
          <path
             d="M 0,0 C 0,0 0.638,-0.229 1.344,-0.834 3.078,-2.308 1.476,-2.907 1.476,-2.907 V -9.77 c 0,0 0.96,-0.087 1.841,-0.233 0.878,-0.132 1.129,0.485 1.129,0.485 V 1.071 H 0.674 C 0.889,0.657 0,0 0,0 m -1.716,-5.817 h -3.568 v -1.977 h 3.568 z m 0,3.295 h -3.568 v -1.981 h 3.568 z M 4.311,4.305 H 0.74 V 2.316 h 3.571 z m 0,3.293 H 0.748 V 5.616 h 3.563 z m 0.268,1.199 0.945,1.412 C 6.521,9.441 7.917,9.017 8.474,7.716 8.455,7.082 7.747,7 7.402,6.64 L 7.377,-11.956 c -0.347,-1.16 -1.638,-1.516 -2.671,-1.585 -0.464,-0.162 -0.669,0.245 -0.669,0.615 v 1.212 c -0.766,0.687 -1.788,0.837 -2.697,1.202 -0.801,-0.407 -1.733,-0.743 -2.676,-0.605 -0.484,0.504 -0.314,1.247 -0.332,1.886 l -3.644,0.138 c -0.386,-0.91 0.357,-2.621 -1.207,-2.7 -0.539,-0.089 -1.245,-0.39 -1.748,0 l -0.204,0.407 V 0.047 c 1.021,-0.23 2.067,-0.857 3.099,-1.271 h 3.758 l 0.742,1.012 c -0.52,0.02 -1.17,0.144 -1.599,0.575 l -0.018,9.846 3.237,-1.412 z"
             style="fill:#5589CD;fill-opacity:1;fill-rule:nonzero;stroke:none"
             id="path270" />
        </g>
        <g
           id="g272"
           transform="translate(346.5361,362.4927)">
          <path
             d="m 0,0 v -30.469 h -64.635 v 9.515 h 43.2 V 0 Z"
             style="fill:#5589CD;fill-opacity:1;fill-rule:nonzero;stroke:none"
             id="path274" />
        </g>
        <g
           id="g276"
           transform="translate(316.4434,356.1025)">
          <path
             d="m 0,0 h -13.318 v 3.814 h -1.726 V 0 H -27.51 v -1.725 h 12.112 c -2.198,-5.137 -12.061,-5.737 -12.061,-5.737 l 0.163,-1.736 c 10.908,0.766 13.108,6.138 13.108,6.138 3.07,-5.706 13.709,-6.246 13.709,-6.246 l 0.114,1.773 c -8.95,0.868 -11.703,4.012 -12.567,5.808 L 0,-1.725 Z M -34.542,6.39 H 6.882 v -19.175 h -41.424 z"
             style="fill:#5589CD;fill-opacity:1;fill-rule:nonzero;stroke:none"
             id="path278" />
        </g>
        <g
           id="g280"
           transform="translate(205.2417,267.7129)">
          <path
             d="m 0,0 c 2.937,-2.774 4.482,-8.653 4.502,-8.708 l 1.762,0.449 C 6.199,-7.994 4.572,-1.816 1.255,1.323 Z"
             style="fill:#5589CD;fill-opacity:1;fill-rule:nonzero;stroke:none"
             id="path282" />
        </g>
        <g
           id="g284"
           transform="translate(212.7524,276.1914)">
          <path
             d="m 0,0 c 0.089,-0.279 2.23,-6.593 6.905,-11.27 l 1.287,1.293 C 3.826,-5.622 1.745,0.499 1.726,0.562 Z"
             style="fill:#5589CD;fill-opacity:1;fill-rule:nonzero;stroke:none"
             id="path286" />
        </g>
        <g
           id="g288"
           transform="translate(203.1519,327.1719)">
          <path
             d="m 0,0 c -4.294,-0.191 -8.131,-1.988 -10.814,-5.067 -6.853,-7.855 -2.853,-15.754 0.222,-18.838 2.226,-2.217 9.121,-5.325 15.133,-0.216 1.808,1.528 2.855,3.647 2.954,5.965 0.087,2.246 -0.733,4.455 -2.198,5.915 -1.197,1.21 -3.288,1.882 -5.075,1.637 -1.566,-0.229 -2.805,-1.062 -3.575,-2.439 l 1.586,-0.886 c 0.494,0.868 1.24,1.384 2.235,1.515 1.407,0.198 2.845,-0.407 3.536,-1.101 1.117,-1.114 1.74,-2.821 1.671,-4.557 -0.076,-1.816 -0.896,-3.462 -2.312,-4.665 -5.584,-4.738 -11.702,-0.846 -12.672,0.113 -2.656,2.665 -6.103,9.517 -0.132,16.361 2.383,2.736 5.678,4.275 9.519,4.436 5.572,0.246 11.533,-2.417 16.785,-7.478 7.835,-7.564 7.822,-19.888 7.816,-27.26 0,-7.492 -4.274,-28.26 -17.361,-30.476 -3.17,-0.546 -5.922,0.005 -8.176,1.629 -2.57,1.856 -3.827,4.715 -4.145,6.748 -0.578,3.762 0.668,7.139 3.414,9.296 2.339,1.836 5.416,2.456 7.649,1.514 2.405,-0.989 4.082,-3.173 4.267,-5.538 0.147,-1.888 -0.664,-3.462 -2.274,-4.458 -1.283,-0.764 -2.54,-1.011 -3.642,-0.671 -0.926,0.272 -1.671,0.948 -2.096,1.864 L 0.666,-57.41 c 0.631,-1.38 1.805,-2.419 3.212,-2.859 1.125,-0.335 2.929,-0.459 5.122,0.865 2.199,1.352 3.345,3.598 3.143,6.143 -0.244,3.053 -2.355,5.842 -5.387,7.096 -2.866,1.192 -6.586,0.489 -9.471,-1.762 -3.276,-2.567 -4.767,-6.581 -4.087,-11.004 0.485,-3.13 2.307,-6.108 4.881,-7.96 2.625,-1.893 5.925,-2.564 9.545,-1.952 14.402,2.453 18.876,24.085 18.876,31.693 0.008,8.238 0.018,21.066 -8.373,29.143 C 12.513,-2.581 6.072,0.258 0,0"
             style="fill:#5589CD;fill-opacity:1;fill-rule:nonzero;stroke:none"
             id="path290" />
        </g>
        <g
           id="g292"
           transform="translate(119.5713,293.8877)">
          <path
             d="m 0,0 c 0,100.937 82.125,183.056 183.067,183.056 100.939,0 183.058,-82.119 183.058,-183.056 0,-100.947 -82.119,-183.062 -183.058,-183.062 C 82.125,-183.062 0,-100.947 0,0 m -1.821,0 c 0,-101.955 82.941,-184.888 184.888,-184.888 101.947,0 184.879,82.933 184.879,184.888 0,101.942 -82.932,184.883 -184.879,184.883 C 81.12,184.883 -1.821,101.942 -1.821,0"
             style="fill:#5589CD;fill-opacity:1;fill-rule:nonzero;stroke:none"
             id="path294" />
        </g>
        <g
           id="g296"
           transform="translate(165.1978,293.8877)">
          <path
             d="M 0,0 C 0,75.784 61.654,137.436 137.441,137.436 213.218,137.436 274.87,75.784 274.87,0 274.87,-75.791 213.218,-137.448 137.441,-137.448 61.654,-137.448 0,-75.791 0,0 m -1.82,0 c 0,-76.788 62.471,-139.27 139.261,-139.27 76.779,0 139.251,62.482 139.251,139.27 0,76.791 -62.472,139.264 -139.251,139.264 C 60.651,139.264 -1.82,76.791 -1.82,0"
             style="fill:#5589CD;fill-opacity:1;fill-rule:nonzero;stroke:none"
             id="path298" />
        </g>
        <g
           id="g300"
           transform="translate(224.644,386.02)">
          <path
             d="m 0,0 c -5.43,-2.646 -9.188,-8.036 -10.866,-15.569 l -0.954,-4.952 c -1.077,-5.971 -2.419,-13.392 -6.019,-21.271 -3.2,-6.977 -6.93,-11.875 -10.21,-16.182 l -4.246,-5.855 1.53,-1.001 4.16,5.754 c 3.343,4.391 7.137,9.354 10.421,16.528 3.696,8.079 5.061,15.631 6.158,21.697 l 0.937,4.88 c 1.575,7.079 4.903,11.907 9.889,14.331 3.922,1.91 9.204,1.809 13.447,-0.276 3.671,-1.796 6.123,-4.85 6.905,-8.588 1.028,-4.963 -0.299,-10.347 -3.389,-13.712 -2.564,-2.797 -6.156,-4.007 -10.394,-3.492 -5.972,0.702 -7.984,4.833 -7.871,8.463 0.111,3.622 2.396,7.611 6.414,7.832 2.794,0.167 4.188,-1.149 4.865,-2.282 0.957,-1.604 1.005,-3.833 0.111,-5.3 l 1.551,-0.945 c 1.248,2.041 1.209,4.995 -0.099,7.18 -1.32,2.216 -3.644,3.342 -6.533,3.173 -5.096,-0.287 -7.995,-5.174 -8.129,-9.605 -0.133,-4.227 2.269,-9.468 9.475,-10.329 6.121,-0.732 9.882,1.813 11.955,4.071 3.472,3.783 4.973,9.791 3.829,15.319 -0.899,4.304 -3.698,7.802 -7.888,9.861 C 10.319,2.043 4.411,2.151 0,0"
             style="fill:#5589CD;fill-opacity:1;fill-rule:nonzero;stroke:none"
             id="path302" />
        </g>
        <g
           id="g304"
           transform="translate(270.7388,420.3101)">
          <path
             d="m 0,0 -3.048,-2.951 c -2.555,-2.886 -6.825,-7.702 -14.523,-13.667 -8.856,-6.874 -19.286,-12.575 -25.513,-15.987 l -4.325,-2.445 0.971,-1.539 4.227,2.378 c 6.279,3.438 16.787,9.187 25.756,16.151 7.831,6.072 12.175,10.977 14.766,13.893 l 2.502,2.539 c 1.342,0.678 5.761,1.684 10.124,-1.66 2.186,-1.688 3.452,-4.046 3.386,-6.328 -0.059,-2.007 -1.092,-3.75 -2.994,-5.037 -4.97,-3.371 -10.865,-8.731 -18.771,-16.282 -6.395,-6.108 -12.368,-15.062 -16.734,-21.595 l -2.56,-3.797 1.497,-1.03 2.578,3.822 c 4.317,6.454 10.228,15.317 16.477,21.288 7.84,7.481 13.669,12.786 18.534,16.091 2.372,1.606 3.719,3.905 3.794,6.485 0.084,2.858 -1.445,5.791 -4.102,7.832 C 7.126,1.935 2.014,1.02 0,0"
             style="fill:#5589CD;fill-opacity:1;fill-rule:nonzero;stroke:none"
             id="path306" />
        </g>
        <g
           id="g308"
           transform="translate(226.7285,375.314)">
          <path
             d="m 0,0 0.865,-1.6 c 0.403,0.217 9.866,5.367 13.628,9.834 l -1.39,1.174 C 9.561,5.198 0.095,0.061 0,0"
             style="fill:#5589CD;fill-opacity:1;fill-rule:nonzero;stroke:none"
             id="path310" />
        </g>
        <g
           id="g312"
           transform="translate(235.4663,366.8999)">
          <path
             d="M 0,0 1.677,-0.708 C 1.694,-0.664 3.51,3.419 11.243,9.3 l -1.101,1.449 C 1.95,4.521 0.074,0.179 0,0"
             style="fill:#5589CD;fill-opacity:1;fill-rule:nonzero;stroke:none"
             id="path314" />
        </g>
        <g
           id="g316"
           transform="translate(200.395,314.9502)">
          <path
             d="M 0,0 1.453,-1.108 C 1.643,-0.85 6.15,5.156 7.584,10.366 L 5.829,10.852 C 4.489,5.97 0.042,0.053 0,0"
             style="fill:#5589CD;fill-opacity:1;fill-rule:nonzero;stroke:none"
             id="path318" />
        </g>
        <g
           id="g320"
           transform="translate(208.8477,308.2666)">
          <path
             d="M 0,0 1.803,-0.264 C 1.81,-0.191 2.826,6.33 8.761,12.433 l -1.303,1.28 C 1.088,7.163 0.042,0.288 0,0"
             style="fill:#5589CD;fill-opacity:1;fill-rule:nonzero;stroke:none"
             id="path322" />
        </g>
        <g
           id="g324"
           transform="translate(363.8262,385.4805)">
          <path
             d="m 0,0 c -4.191,-2.046 -6.995,-5.556 -7.896,-9.868 -1.145,-5.509 0.356,-11.514 3.831,-15.3 2.073,-2.27 5.828,-4.815 11.949,-4.078 7.21,0.862 9.614,6.107 9.483,10.329 -0.136,4.444 -3.036,9.312 -8.138,9.596 -2.883,0.166 -5.206,-0.954 -6.526,-3.158 -1.31,-2.186 -1.35,-5.149 -0.099,-7.191 l 1.55,0.946 c -0.896,1.478 -0.849,3.707 0.118,5.31 0.674,1.14 2.067,2.444 4.853,2.277 4.019,-0.228 6.307,-4.203 6.418,-7.833 0.113,-3.629 -1.896,-7.749 -7.879,-8.479 -4.233,-0.491 -7.829,0.713 -10.389,3.508 -3.09,3.372 -4.421,8.751 -3.386,13.715 0.782,3.741 3.236,6.795 6.914,8.599 4.242,2.065 9.517,2.174 13.434,0.265 4.995,-2.439 8.323,-7.261 9.89,-14.332 l 0.948,-4.906 c 1.096,-6.065 2.461,-13.611 6.155,-21.671 3.306,-7.246 7.791,-13.216 11.389,-18.02 l 4.327,-6.024 1.531,1.001 -4.397,6.119 c -3.731,4.976 -7.967,10.624 -11.198,17.678 -3.591,7.857 -4.937,15.282 -6.018,21.248 l -0.96,4.963 C 24.23,-7.766 20.475,-2.383 15.037,0.27 10.633,2.421 4.731,2.325 0,0"
             style="fill:#5589CD;fill-opacity:1;fill-rule:nonzero;stroke:none"
             id="path326" />
        </g>
        <g
           id="g328"
           transform="translate(320.7285,418.1909)">
          <path
             d="m 0,0 c -2.653,-2.036 -4.187,-4.964 -4.1,-7.82 0.074,-2.57 1.421,-4.875 3.791,-6.481 4.838,-3.282 10.68,-8.592 18.535,-16.091 5.602,-5.353 10.793,-12.929 14.966,-19.006 l 3.992,-5.691 1.462,1.097 -3.958,5.624 c -4.215,6.149 -9.473,13.814 -15.207,19.288 -7.919,7.563 -13.824,12.935 -18.765,16.276 -1.901,1.293 -2.938,3.043 -2.997,5.036 -0.064,2.29 1.195,4.648 3.386,6.344 4.349,3.335 8.788,2.329 10.127,1.67 l 2.476,-2.528 c 2.597,-2.927 6.938,-7.821 14.793,-13.916 9.006,-7.001 19.543,-12.762 25.835,-16.199 l 4.151,-2.33 0.963,1.545 -4.24,2.383 c -6.25,3.414 -16.695,9.132 -25.597,16.026 C 21.898,-8.778 17.626,-3.952 15.07,-1.072 L 12.047,1.869 C 10.021,2.875 4.901,3.79 0,0"
             style="fill:#5589CD;fill-opacity:1;fill-rule:nonzero;stroke:none"
             id="path330" />
        </g>
        <g
           id="g332"
           transform="translate(362.2842,383.2949)">
          <path
             d="M 0,0 C 3.761,-4.479 12.212,-9.106 12.575,-9.298 L 13.449,-7.7 C 13.36,-7.652 4.936,-3.041 1.392,1.17 Z"
             style="fill:#5589CD;fill-opacity:1;fill-rule:nonzero;stroke:none"
             id="path334" />
        </g>
        <g
           id="g336"
           transform="translate(356.8037,375.9419)">
          <path
             d="m 0,0 c 7.731,-5.893 9.548,-9.975 9.565,-10.019 l 1.675,0.72 C 11.167,-9.12 9.288,-4.797 1.102,1.443 Z"
             style="fill:#5589CD;fill-opacity:1;fill-rule:nonzero;stroke:none"
             id="path338" />
        </g>
        <g
           id="g340"
           transform="translate(382.2275,318.9194)">
          <path
             d="m 0,0 c -8.388,-8.101 -8.373,-20.922 -8.368,-28.578 0,-8.189 4.472,-29.831 18.88,-32.277 3.621,-0.616 6.921,0.055 9.547,1.958 2.569,1.851 4.393,4.827 4.875,7.947 0.681,4.426 -0.805,8.419 -4.08,10.989 -2.885,2.276 -6.613,2.976 -9.481,1.785 -3.03,-1.252 -5.144,-4.041 -5.383,-7.097 -0.197,-2.557 0.943,-4.791 3.14,-6.131 2.189,-1.338 3.996,-1.21 5.116,-0.864 1.415,0.433 2.589,1.462 3.229,2.829 l -1.659,0.777 c -0.422,-0.927 -1.165,-1.582 -2.093,-1.876 -1.111,-0.328 -2.379,-0.1 -3.648,0.684 -1.604,0.987 -2.419,2.562 -2.266,4.438 0.183,2.389 1.856,4.572 4.255,5.559 2.242,0.928 5.327,0.311 7.669,-1.528 2.738,-2.157 3.976,-5.533 3.399,-9.283 -0.311,-2.054 -1.565,-4.892 -4.134,-6.753 -2.257,-1.624 -5.009,-2.182 -8.178,-1.624 -13.091,2.216 -17.366,22.984 -17.366,29.876 -0.005,7.964 -0.02,20.295 7.81,27.852 5.257,5.06 11.21,7.713 16.781,7.48 3.848,-0.162 7.136,-1.702 9.527,-4.432 5.973,-6.869 2.521,-13.702 -0.135,-16.356 -0.968,-0.974 -7.055,-4.884 -12.667,-0.124 -1.415,1.209 -2.234,2.857 -2.306,4.671 -0.074,1.731 0.548,3.431 1.654,4.545 0.795,0.79 2.379,1.468 3.752,1.157 1.254,-0.288 2.214,-1.331 2.848,-3.109 l 1.713,0.617 c -1.061,2.994 -2.853,3.976 -4.161,4.275 -2.128,0.48 -4.31,-0.532 -5.441,-1.658 -1.456,-1.456 -2.28,-3.665 -2.191,-5.906 0.103,-2.327 1.15,-4.448 2.952,-5.976 6.16,-5.222 13.249,-1.669 15.13,0.222 3.076,3.067 7.079,10.947 0.227,18.841 C 26.257,6.001 22.416,7.797 18.121,7.983 12.05,8.24 5.615,5.396 0,0"
             style="fill:#5589CD;fill-opacity:1;fill-rule:nonzero;stroke:none"
             id="path342" />
        </g>
        <g
           id="g344"
           transform="translate(395.2939,325.4062)">
          <path
             d="m 0,0 c 1.441,-5.211 5.832,-11.182 6.018,-11.438 l 1.461,1.089 C 7.435,-10.295 3.105,-4.402 1.758,0.485 Z"
             style="fill:#5589CD;fill-opacity:1;fill-rule:nonzero;stroke:none"
             id="path346" />
        </g>
        <g
           id="g348"
           transform="translate(385.9023,320.4351)">
          <path
             d="m 0,0 c 5.937,-6.102 6.948,-12.623 6.958,-12.688 l 1.802,0.255 C 8.715,-12.144 7.671,-5.282 1.301,1.27 Z"
             style="fill:#5589CD;fill-opacity:1;fill-rule:nonzero;stroke:none"
             id="path350" />
        </g>
        <g
           id="g352"
           transform="translate(392.0117,259.1904)">
          <path
             d="m 0,0 1.76,-0.442 c 0.016,0.059 1.561,5.928 4.492,8.698 L 5.003,9.581 C 1.687,6.449 0.063,0.264 0,0"
             style="fill:#5589CD;fill-opacity:1;fill-rule:nonzero;stroke:none"
             id="path354" />
        </g>
        <g
           id="g356"
           transform="translate(382.5703,265.9404)">
          <path
             d="M 0,0 1.288,-1.283 C 5.958,3.382 8.104,9.706 8.191,9.972 L 6.464,10.558 C 6.447,10.49 4.361,4.372 0,0"
             style="fill:#5589CD;fill-opacity:1;fill-rule:nonzero;stroke:none"
             id="path358" />
        </g>
        <g
           id="g360"
           transform="translate(280.6279,402.8794)">
          <path
             d="m 0,0 c 0.38,-0.216 9.48,-5.396 20.245,-5.396 15.027,0 21.44,5.263 21.704,5.485 l -1.17,1.395 C 40.718,1.432 34.537,-3.57 20.245,-3.57 9.983,-3.57 1,1.525 0.908,1.573 Z"
             style="fill:#5589CD;fill-opacity:1;fill-rule:nonzero;stroke:none"
             id="path362" />
        </g>
        <g
           id="g364"
           transform="translate(391.3574,235.9219)">
          <path
             d="m 0,0 -0.454,-2.009 c -3.649,-16.275 -14.734,-65.794 -88.265,-65.794 -74.149,0 -86.215,50.595 -90.18,67.221 l -0.602,2.478 c -3.286,12.652 -11.465,25.729 -11.549,25.852 l -1.542,-0.97 c 0.082,-0.126 8.115,-12.958 11.327,-25.348 l 0.593,-2.427 c 4.049,-16.977 16.367,-68.622 91.953,-68.622 49.757,0 80.048,22.606 90.039,67.21 l 0.454,1.995 C 4.426,10.663 7.95,17.587 14.387,28.029 l -1.55,0.963 C 6.296,18.369 2.71,11.334 0,0"
             style="fill:#5589CD;fill-opacity:1;fill-rule:nonzero;stroke:none"
             id="path366" />
        </g>
        <g
           id="g368"
           transform="translate(302.7285,317.5669)">
          <path
             d="m 0,0 6.863,5.419 c 0,0 33.598,-0.198 34.356,-0.198 0.515,-0.527 17.146,-17.581 17.146,-17.581 0,0 -0.242,-59.832 -0.252,-61.603 h -46.56 c 0,0 -5.206,-5.211 -5.69,-5.698 H -7.572 c -0.488,0.487 -6.452,6.457 -6.452,6.457 H -62.52 v 59.364 c 0.171,-0.138 16.343,17.482 17.786,19.044 h 37.105 c 0,-0.209 6.512,-5.211 6.512,-5.211 l 0.563,-0.436 z M 41.606,7.042 H 6.3 C 5.809,6.88 0.781,2.929 -0.568,1.869 c -0.953,0.73 -6.477,4.97 -6.477,4.97 L -45.53,7.031 -64.097,-13.21 -64.34,-75.02 h 49.563 c 0.488,-0.494 6.449,-6.465 6.449,-6.465 H 6.616 c 0,0 5.208,5.211 5.695,5.694 h 47.62 v 64.072 C 59.674,-11.073 42.255,6.767 42.255,6.767 l -0.272,0.275 z"
             style="fill:#5589CD;fill-opacity:1;fill-rule:nonzero;stroke:none"
             id="path370" />
        </g>
        <g
           id="g372"
           transform="translate(256.687,323.6929)">
          <path
             d="m 0,0 v -61.447 h 39.577 c 0,-0.269 5.534,-5.169 5.534,-5.169 l 0.602,-0.533 c 0,0 6.743,5.971 6.754,5.988 0.008,-0.227 35.265,-0.286 35.265,-0.286 h 0.908 l 0.18,61.381 H 87 c 0,0 -0.171,-57.795 -0.174,-59.555 -1.728,0 -34.953,0.057 -34.953,0.057 -0.513,-0.202 -4.78,-3.939 -6.157,-5.153 -0.978,0.864 -5.492,4.862 -5.492,4.862 0,0 -36.671,0.202 -38.405,0.223 L 1.819,0 Z"
             style="fill:#5589CD;fill-opacity:1;fill-rule:nonzero;stroke:none"
             id="path374" />
        </g>
        <g
           id="g376"
           transform="translate(352.3955,314.29)">
          <path
             d="m 0,0 c 0,0 0.055,-57.383 0.06,-59.165 h -41.087 c -0.619,-0.247 -6.775,-6.084 -6.775,-6.084 0,0 -5.335,0.21 -6.024,0.239 -0.459,0.449 -5.647,5.635 -5.647,5.635 h -43.333 c -0.002,1.76 -0.057,59.125 -0.057,59.125 h -1.82 l 0.06,-60.943 h 44.395 c 0.483,-0.49 5.632,-5.626 5.632,-5.626 h 7.417 c 0.625,0.245 6.782,6.09 6.782,6.09 L 1.879,-60.979 1.822,0 Z"
             style="fill:#5589CD;fill-opacity:1;fill-rule:nonzero;stroke:none"
             id="path378" />
        </g>
        <g
           id="g380"
           transform="translate(252.3711,318.8662)">
          <path
             d="m 0,0 0.099,-61.544 h 41.569 c 0.482,-0.514 5.626,-5.87 5.626,-5.87 h 4.789 c 0,0 4.792,5.428 5.278,5.983 0.802,0 40.492,0.128 40.492,0.128 v 60.842 h -1.817 v -59.03 c -1.737,-0.01 -39.497,-0.123 -39.497,-0.123 0,0 -4.792,-5.428 -5.279,-5.974 h -3.187 c -0.485,0.509 -5.633,5.87 -5.633,5.87 H 1.916 C 1.913,-57.961 1.822,0 1.822,0 Z"
             style="fill:#5589CD;fill-opacity:1;fill-rule:nonzero;stroke:none"
             id="path382" />
        </g>
        <g
           id="g384"
           transform="translate(356.8486,309.6016)">
          <path
             d="m 0,0 v -60.203 h -44.858 c 0,0 -4.564,-4.551 -5.042,-5.035 h -10.208 c -0.489,0.599 -4.928,6.106 -4.928,6.106 0,0 -45.396,-0.068 -47.149,-0.068 -0.002,1.764 -0.056,58.183 -0.056,58.183 h -1.823 l 0.062,-60.005 c 0,0 47.243,0.066 48.095,0.066 0.49,-0.609 4.928,-6.099 4.928,-6.099 h 11.832 c 0,0 4.566,4.554 5.044,5.038 H 1.824 L 1.824,0 Z"
             style="fill:#5589CD;fill-opacity:1;fill-rule:nonzero;stroke:none"
             id="path386" />
        </g>
        <g
           id="g388"
           transform="translate(238.6318,244.0771)">
          <path
             d="M 0,0 1.334,-1.239 19.63,18.463 18.296,19.694 Z"
             style="fill:#5589CD;fill-opacity:1;fill-rule:nonzero;stroke:none"
             id="path390" />
        </g>
        <g
           id="g392"
           transform="translate(343.7295,262.5547)">
          <path
             d="m 0,0 17.101,-19.934 1.379,1.19 L 1.383,1.189 Z"
             style="fill:#5589CD;fill-opacity:1;fill-rule:nonzero;stroke:none"
             id="path394" />
        </g>
      </g>
    </g>
  </g>
</svg>
